<?xml version="1.0" encoding="utf-8"?>
<!-- Uploaded to: SVG Repo, www.svgrepo.com, Generator: SVG Repo Mixer Tools -->
<svg width="800px" height="800px" viewBox="0 0 1024 1024" class="icon"  version="1.1" xmlns="http://www.w3.org/2000/svg"><path d="M576 106.666667s-64 65.493333-64 192.746666" fill="#FFFFFF" /><path d="M512 299.413333S485.333333 32 213.333333 128c29.333333 278.229333 298.666667 171.413333 298.666667 171.413333z" fill="#4CAF50" /><path d="M134.08 553.258667C94.293333 338.474667 253.418667 123.669333 512 299.413333c258.581333-175.744 417.706667 39.061333 377.92 253.824C850.154667 768.042667 631.338667 969.685333 512 826.624c-119.338667 143.061333-338.154667-58.581333-377.92-273.365333z" fill="#D32F2F" /><path d="M690.816 277.333333c-46.72 0-98.816 19.306667-154.837333 57.365334L512 350.997333v409.024l32.768 39.274667c18.346667 22.016 39.189333 32.725333 63.68 32.725333 84.458667 0 210.133333-127.808 239.509333-286.549333 15.018667-81.024-2.325333-163.413333-45.248-215.04C773.802667 295.701333 735.104 277.333333 690.816 277.333333z" fill="#FFF3E0" /><path d="M672 559.082667a42.666667 42.666667 0 0 1-85.333333 0c0-23.573333 42.666667-72.832 42.666666-72.832s42.666667 49.28 42.666667 72.832z" fill="#5D4037" /><path d="M512 299.413333C253.418667 123.669333 94.293333 338.474667 134.08 553.258667 173.845333 768.042667 392.661333 969.685333 512 826.624V299.413333z" fill="#F44336" /></svg>