<?xml version="1.0" encoding="utf-8"?>
<!-- Uploaded to: SVG Repo, www.svgrepo.com, Generator: SVG Repo Mixer Tools -->
<svg width="800px" height="800px" viewBox="-41.51 0 332.551 332.551" xmlns="http://www.w3.org/2000/svg"><defs><style>.a{fill:#211715;}.b{fill:#ad7b59;}.c{fill:#ffffff;}.d{fill:#f4b3b3;}</style></defs><path class="a" d="M189.517,324.407c.224,1.822.466,3.7.714,5.624,6.465,0,12.6,0,18.3-.008-.009-1.978-.009-3.61-.009-3.61q-.879.01-1.773-.015a45.2,45.2,0,0,1-17.474-4.026Q189.39,323.377,189.517,324.407Z"/><path class="b" d="M173.149,169.355c14.229,5.109,25.78-6.751,25.694-16.711a48.708,48.708,0,0,0-3.07-16.672c-2.529-7.332-7.43-22.228-7.776-48.839.708-8.053-.02-19.688-.337-24.16-1.1-15.5-8.024-32.814-17.993-42.439-4.31-4.161-5.562-6.1-10.255-8.652l-5.259-2.857-2.594-1.053a72.4,72.4,0,0,0-28.95-5.555c-19.945-.007-37.7,10.262-45.581,17.8C63.956,32.725,55.658,55.575,56.693,87.089c0,21.359-1.759,36.764-4.213,45.517a102.463,102.463,0,0,0-3.158,22.058c-.093,9.96,10.693,20.887,26.605,17.516,0,0,17.439,11.032,46.476,11.032A103.326,103.326,0,0,0,173.149,169.355Z"/><path class="c" d="M75.415,174.673c1-.341,17.436-8.029,17.78-8.153,5.2-1.876,4.992-5.217,5.647-8.955a69.053,69.053,0,0,0,1.108-9.881,52.106,52.106,0,0,1-24.092-31.559,18.945,18.945,0,0,1-1.9.047,12.821,12.821,0,0,1-5.963-2.69,19.354,19.354,0,0,1-5-6.567,30.425,30.425,0,0,1-3.1-16.134A10.153,10.153,0,0,1,60.958,86.7a7.184,7.184,0,0,1,5.166-3.432,7.328,7.328,0,0,1,7.122,3c10.005-9.255,27.145-24.054,36.279-33.02-.63,5.306-3.971,16.535-.43,15.483,14.89-4.248,26.88-12.946,36.324-25.219,1.979,6.6,4.478,15.951,6.778,20.267,3.136,5.884,12,20.71,21.041,24.258a7.3,7.3,0,0,1,7.156-3.054,7.186,7.186,0,0,1,5.164,3.436A10.167,10.167,0,0,1,186.62,92.5a30.442,30.442,0,0,1-3.109,16.131,19.342,19.342,0,0,1-5,6.563,12.832,12.832,0,0,1-5.965,2.687s-.562.086-1.536.238c-.6,2.2-1.22,4.078-1.465,4.821-1.763,4.778-7.681,19.191-22.486,25.044a75.752,75.752,0,0,0,1.084,9.579c.655,3.738.45,7.079,5.646,8.955.344.124,15.082,7.136,15.608,7.352,0,0-10.427,27.959-51.316,27.959C87.855,201.831,75.415,174.673,75.415,174.673Z"/><path class="a" d="M176,88.456a5.1,5.1,0,0,1,7.3.86c.947,1.4.979,3.346,1.02,4.974a26.872,26.872,0,0,1-.372,5.382c-1.177,6.62-4.673,14.625-12.043,15.9a2.42,2.42,0,0,0-1.676,2.953,2.455,2.455,0,0,0,2.952,1.676c7.73-1.334,12.335-8.572,14.494-15.539a32.227,32.227,0,0,0,1.395-11.486c-.241-3.808-1.4-7.423-4.925-9.393a10.123,10.123,0,0,0-11.535,1.283,2.421,2.421,0,0,0,0,3.394,2.45,2.45,0,0,0,3.394,0Z"/><path class="a" d="M170.066,110.341c-.12,3.667-1.405,7.5-2.54,11.044-.273.85-.579,1.683-.912,2.511-.088.218-.179.436-.269.654-.136.331.243-.555.013-.032-.047.106-.092.214-.139.321q-.381.869-.793,1.724a40.094,40.094,0,0,1-11.632,14.885,32.645,32.645,0,0,1-12.9,5.888c-3.016.662-1.74,5.29,1.276,4.629,14.421-3.163,25.016-14.884,29.722-28.5,1.438-4.161,2.828-8.7,2.973-13.123.1-3.09-4.7-3.086-4.8,0Z"/><path class="a" d="M73.908,83.35a10.063,10.063,0,0,0-10.1-1.941c-3.777,1.475-5.736,4.6-6.224,8.532a31.393,31.393,0,0,0,5.462,21.718,16.44,16.44,0,0,0,10.267,6.827,2.469,2.469,0,0,0,2.952-1.676,2.419,2.419,0,0,0-1.676-2.952c-7.369-1.277-10.859-9.286-12.031-15.906a26.949,26.949,0,0,1-.368-5.382c.041-1.623.067-3.584,1.024-4.974a5.1,5.1,0,0,1,7.3-.852,2.463,2.463,0,0,0,3.394,0,2.421,2.421,0,0,0,0-3.394Z"/><path class="a" d="M71.164,104.1a72.344,72.344,0,0,0,5.918,22.188A54.008,54.008,0,0,0,96.414,148.36a36.164,36.164,0,0,0,14.175,5.538,2.479,2.479,0,0,0,2.952-1.677,2.418,2.418,0,0,0-1.676-2.952c-8.64-1.284-15.964-6.306-21.856-12.554a50.88,50.88,0,0,1-12.18-22.5c-.494-1.915-.9-3.853-1.238-5.8q-.207-1.2-.378-2.4c-.024-.166-.047-.331-.07-.5-.11-.8.057.455-.041-.311q-.07-.549-.138-1.1a2.475,2.475,0,0,0-2.4-2.4,2.415,2.415,0,0,0-2.4,2.4Z"/><path class="a" d="M143.281,44.737c2.219,7.473,4.017,15.281,7.871,22.122A78.4,78.4,0,0,0,163.9,84.335c2.829,2.79,6.143,5.371,10.028,6.45,2.981.828,4.253-3.8,1.276-4.628a18.731,18.731,0,0,1-7.431-4.751,56.024,56.024,0,0,1-6.9-8.152,63.994,63.994,0,0,1-8.792-16.094c-1.546-4.516-2.81-9.124-4.169-13.7-.877-2.954-5.511-1.7-4.628,1.277Z"/><path class="a" d="M143.694,41.848a71.651,71.651,0,0,1-19.621,17.816,63.634,63.634,0,0,1-11.833,5.554q-1.591.553-3.208,1.029c-.758.223-.856.08-.149.181a1.565,1.565,0,0,1,.721.323,2.672,2.672,0,0,1,.282.277c.258.345-.048.239.016-.127.054-.308.033.453.017.1-.008-.168-.021-.334-.025-.5a16.4,16.4,0,0,1,.129-2.17c.385-3.43,1.446-7.405,1.9-11.088.268-2.168-2.743-3.024-4.1-1.7C98.3,60.89,88.132,69.587,78.211,78.509c-2.537,2.281-5.068,4.571-7.565,6.9-2.266,2.11,1.134,5.5,3.394,3.394,9.806-9.131,19.98-17.86,29.842-26.929,2.477-2.278,4.937-4.574,7.34-6.929l-4.1-1.7c-.09.729.043-.272-.027.188q-.048.318-.1.635-.1.614-.215,1.223c-.171.936-.356,1.869-.537,2.8-.392,2.025-.769,4.054-1.008,6.1-.342,2.935.034,7.766,4.28,6.893a41.488,41.488,0,0,0,6.75-2.27,72.6,72.6,0,0,0,7.061-3.229,70.316,70.316,0,0,0,12.2-8.238,77.418,77.418,0,0,0,11.563-12.112,2.48,2.48,0,0,0,0-3.394,2.415,2.415,0,0,0-3.394,0Z"/><path class="a" d="M152.2,5.658A76.9,76.9,0,0,0,119.963.076a73.179,73.179,0,0,0-32.03,9.4A57.121,57.121,0,0,0,69.2,25.613a73.01,73.01,0,0,0-10.989,23.8c-3.357,12.22-4.316,25.051-3.919,37.68.1,3.081,4.9,3.095,4.8,0-.6-19.2,1.778-39.966,12.454-56.44A49.736,49.736,0,0,1,87.213,15.476a69.446,69.446,0,0,1,28.839-10.3,72.315,72.315,0,0,1,34.869,5.109,2.415,2.415,0,0,0,2.952-1.676A2.458,2.458,0,0,0,152.2,5.658Z"/><path class="a" d="M190.4,87.133a132.329,132.329,0,0,0,.067-17.292,110.966,110.966,0,0,0-1.512-15.364c-2.188-11.683-6.981-23.39-14.691-32.531-2.007-2.38-4.3-4.518-6.507-6.713a31.731,31.731,0,0,0-7.13-5.423c-2.708-1.491-5.133,2.653-2.423,4.145a25.68,25.68,0,0,1,5.695,4.212c1.95,1.908,3.944,3.813,5.787,5.825a54.644,54.644,0,0,1,8.845,13.643,74.4,74.4,0,0,1,5.482,16.534,93.5,93.5,0,0,1,1.6,14.473,136.813,136.813,0,0,1-.009,18.491,2.42,2.42,0,0,0,2.4,2.4,2.449,2.449,0,0,0,2.4-2.4Z"/><path class="a" d="M54.293,87.089c-.007,8.751-.27,17.514-1.068,26.232A111.217,111.217,0,0,1,50.5,130.7a111.112,111.112,0,0,0-3.51,21.721,20.21,20.21,0,0,0,1.146,8.67,21.26,21.26,0,0,0,5.182,7.666c6.264,5.89,15.006,7.419,23.243,5.734a2.4,2.4,0,0,0-1.276-4.629c-6.238,1.277-13.125.271-18.021-4a17.148,17.148,0,0,1-4.5-6.048,15.55,15.55,0,0,1-.965-7.564,104.957,104.957,0,0,1,3.329-20.275A114.837,114.837,0,0,0,57.853,115.1c.938-9.3,1.233-18.667,1.24-28.014,0-3.089-4.8-3.094-4.8,0Z"/><path class="a" d="M185.6,87.133c.2,14.055,1.606,28.24,5.431,41.8,1.351,4.79,3.257,9.431,4.363,14.286a40.565,40.565,0,0,1,.916,6.042c.083,1.123.136,2.252.136,3.379a16.478,16.478,0,0,1-.092,1.654A15.557,15.557,0,0,1,193.1,161.6a16.621,16.621,0,0,1-19.311,5.436,2.4,2.4,0,1,0-1.276,4.629,21.729,21.729,0,0,0,27.063-11.6,21.127,21.127,0,0,0,1.578-10.147,53.043,53.043,0,0,0-2.688-13.47c-.635-1.925-1.311-3.835-1.913-5.772a126.177,126.177,0,0,1-3.74-15.577A176.007,176.007,0,0,1,190.4,87.133c-.043-3.086-4.843-3.095-4.8,0Z"/><path class="a" d="M80.544,174.994q4.534-2.079,9.056-4.183,1.8-.836,3.609-1.671c.3-.137.593-.27.888-.409a1.184,1.184,0,0,0,.256-.115q-.97.4-.151.08c.309-.126.618-.256.925-.387a9.45,9.45,0,0,0,5.565-7.206,99.008,99.008,0,0,0,1.571-11.651,2.4,2.4,0,0,0-4.8,0,88.026,88.026,0,0,1-1.4,10.375,11.856,11.856,0,0,1-.433,1.7q-.154.407-.034.111c-.069.15-.144.3-.225.44a1.987,1.987,0,0,1-.361.55,8.041,8.041,0,0,1-3.08,1.841c-4.639,2.042-9.2,4.266-13.809,6.379a2.417,2.417,0,0,0-.861,3.283,2.455,2.455,0,0,0,3.283.861Z"/><path class="a" d="M166.783,170.242h-.01l1.211.328c-4.405-2.078-8.762-4.352-13.255-6.233-2.662-1.114-3.4-2.123-3.869-4.83a97.143,97.143,0,0,1-1.407-11.425c-.165-3.073-4.966-3.092-4.8,0a105.108,105.108,0,0,0,1.6,12.831,9.515,9.515,0,0,0,5.579,7.389q.465.2.933.391.828.321-.138-.075a1.5,1.5,0,0,0,.28.127c.319.151.64.3.96.446q1.9.889,3.791,1.787l4.425,2.093,2.239,1.059a6.27,6.27,0,0,0,2.46.912c3.088,0,3.094-4.8,0-4.8Z"/><path class="d" d="M41.744,188.881q-.306.215-.6.431c-.3.23-3.16,2.64-4.08,3.56-5.58,5.63-8.29,13.42-10.63,20.99-4.12,10.92-14.68,46.26-16.56,61.98-1.43,11.87-1.43,23.74,2.37,34.97.96,2.89,5.12,10.48,13.75,12.09,7.18,1.34,16.46.48,22.03-4.08,2.729-2.226,5.413-5.937,7.76-9.911-.91,6.311-2.2,13.631-3.45,20.291,0,0-.054.353-.142.924,40.577-.025,96.234-.064,138.052-.1l-.07-.441c-.32-2.49-.63-4.9-.9-7.21a44.456,44.456,0,0,0,27.23,3.15c.31-.11.49-.18.49-.18,11.18-4.04,17.35-11.86,18.42-25.54a148.773,148.773,0,0,0-6.28-48.45c-5.12-17.4-6.96-24.11-9.49-30.44-3.98-11.44-8.57-21.7-15.1-28.69a51.663,51.663,0,0,0-16.85-12.13c-6.7-2.74-12.94-5.44-19.48-8.25-10.35,6.04-30.51,11.43-45.81,11.37-16.16-.04-33.28-5.17-44.58-11.05C65.042,176.911,50.438,182.748,41.744,188.881Z"/><path class="a" d="M192.573,329.582c-.309-2.4-.618-4.8-.9-7.21a2.618,2.618,0,0,0-.7-1.7,2.4,2.4,0,0,0-3.394,0,2.309,2.309,0,0,0-.7,1.7c.282,2.406.591,4.808.9,7.21a2.633,2.633,0,0,0,.7,1.7,2.4,2.4,0,0,0,3.394,0,2.3,2.3,0,0,0,.7-1.7Z"/><path class="a" d="M193.837,270.81c2.405-16.116,4.8-32.233,7-48.379q.836-6.137,1.625-12.279a2.412,2.412,0,0,0-2.4-2.4,2.46,2.46,0,0,0-2.4,2.4c-1.911,14.936-4.079,29.839-6.279,44.735q-1.08,7.325-2.175,14.647a2.478,2.478,0,0,0,1.676,2.952,2.417,2.417,0,0,0,2.952-1.676Z"/><path class="a" d="M53.469,308.274c-.984,6.79-2.186,13.547-3.45,20.29a2.464,2.464,0,0,0,1.676,2.952,2.421,2.421,0,0,0,2.952-1.676c1.264-6.743,2.466-13.5,3.45-20.29a2.48,2.48,0,0,0-1.676-2.952,2.417,2.417,0,0,0-2.952,1.676Z"/><path class="c" d="M169.973,265.8c-5,6.7-9.98,13.93-14.86,21.01-.05-.03-.09-.06-.14-.09-.32-.21-.63-.42-.93-.62-1.22-.81-2.34-1.53-3.25-2.1l-.16-.1c-.17-.11-.34-.21-.49-.3h-.17c-8.03-.16-18.3.85-26.08.15-4.19-.38-16.73-.92-21.06-3.51-2.02-1.21-2.48-4.21-1.38-6.29,1.28-2.41,4.16-2.24,6.89-2.06,1.93.12,4.81.44,7.61.74h.01c2.47.28,4.88.54,6.5.64,5.1-.43,9.84-.63,16.83-3.05,1.13-.39,2.32-.83,3.58-1.35l7.63-7.83a33.476,33.476,0,0,0-.83-3.28c-.4-1.37-.83-2.78-1.06-3.7-.36-1.45-1.07-3.18-1.64-4.93v-.01c-.68-2.08-1.14-4.18-.52-5.84a2.72,2.72,0,0,1,3.37-1.81h.01c.13.02.25.05.38.08,2.77.71,4.68,3.18,6.2,5.6s3.76,5.2,6.24,6.62l.86.68a13.664,13.664,0,0,1,5.57,8.72,6.294,6.294,0,0,0,.63,2.27A2.983,2.983,0,0,0,169.973,265.8Z"/><path class="c" d="M99.064,245.452c-1,7.725,1.577,17.408,8.143,22.366,7.434,5.612,14.769,7.333,23.936,5.682,6.014-1.083,12.5-5.487,16.03-10.61,3.278-4.764,4.381-11.717,4.137-17.438-2.977,5.591-15.18,6.715-25.363,6.84-9.19.113-23.463-3.315-26.883-6.84Z"/><path class="c" d="M102.982,237.374c.032-.037.065-.072.1-.107,1.385-1.491,4.186-3,6.216-2.861a2.116,2.116,0,0,0,1.571-.249,2.035,2.035,0,0,0,.481-.9,9.8,9.8,0,0,1,16-3.865,2.122,2.122,0,0,0,1.092.7,2.254,2.254,0,0,0,1.493-.664,6.959,6.959,0,0,1,9.63,1.936,1.982,1.982,0,0,0,2.317,1.4c2.989.047,5.654,3.067,6.822,5.819,1.416,3.338,1.983,4.319.78,9.01-4.615,3.753-14.815,4.592-23.534,4.7-7.791.1-19.236-2.354-24.62-5.25l-.308-2.206A9.451,9.451,0,0,1,102.982,237.374Z"/><path class="a" d="M97.367,247.149c2.21,2.2,5.476,3.33,8.372,4.272a69.285,69.285,0,0,0,24.635,3.147,64.5,64.5,0,0,0,13.125-1.69c3.754-.965,7.9-2.658,9.883-6.215,1.507-2.7-2.638-5.123-4.145-2.422a6,6,0,0,1-2.366,2.242,17.435,17.435,0,0,1-4.318,1.68,54.736,54.736,0,0,1-11.4,1.567,67.2,67.2,0,0,1-22.377-2.4,38.513,38.513,0,0,1-4.984-1.742,18.386,18.386,0,0,1-1.881-.973c-.274-.165-.543-.339-.8-.527.43.309-.247-.234-.349-.335-2.193-2.182-5.588,1.211-3.394,3.394Z"/><path class="a" d="M96.664,245.452a29.669,29.669,0,0,0,3,16.874c2.83,5.541,7.927,9.4,13.57,11.8a31.9,31.9,0,0,0,18.546,1.686A28.3,28.3,0,0,0,147.969,265.8c4.551-5.667,6.009-13.219,5.741-20.349-.116-3.079-4.917-3.094-4.8,0,.2,5.3-.538,11.034-3.4,15.607a23.732,23.732,0,0,1-12.823,9.6,26.566,26.566,0,0,1-15.843-.253c-4.745-1.6-9.515-4.636-12.17-8.963a24.955,24.955,0,0,1-3.208-15.989,2.413,2.413,0,0,0-2.4-2.4,2.458,2.458,0,0,0-2.4,2.4Z"/><path class="a" d="M103.333,244.2a6.612,6.612,0,0,1,1.78-5.569,7.684,7.684,0,0,1,2.154-1.39,7.3,7.3,0,0,1,2.862-.415A3.618,3.618,0,0,0,113.3,234.8a14.161,14.161,0,0,1,1.55-2.945,7.444,7.444,0,0,1,4.925-2.712,7.691,7.691,0,0,1,5.595,1.7c1.048.874,1.917,1.712,3.392,1.651,1.32-.055,2.07-.974,3.178-1.474a4.682,4.682,0,0,1,4.318.372,4.41,4.41,0,0,1,1.4,1.476,4.4,4.4,0,0,0,3.555,2.291,4.368,4.368,0,0,1,2.695.875,8.423,8.423,0,0,1,2.081,2.491,9.79,9.79,0,0,1,1.655,6.276,2.477,2.477,0,0,0,1.676,2.953,2.42,2.42,0,0,0,2.953-1.677,12.928,12.928,0,0,0,.111-4.167,16.352,16.352,0,0,0-1.277-3.749,14,14,0,0,0-5.076-6.478,8.173,8.173,0,0,0-3.806-1.292c-.03,0-.7-.068-.7.007,0-.189.665.991.278.047a6.49,6.49,0,0,0-1.3-1.757,9.525,9.525,0,0,0-6.756-2.815,8.91,8.91,0,0,0-3.367.632,8.574,8.574,0,0,0-1.657.862c-.462.312-.9.345,0,.481,1.115.166.147-.317-.244-.64a12.521,12.521,0,0,0-7.953-2.89,12.2,12.2,0,0,0-7.773,2.888,12.423,12.423,0,0,0-2.531,2.9,11.738,11.738,0,0,0-.923,1.846,3.213,3.213,0,0,0-.266.672q1.624-.654.595-.589c-.214-.019-.428-.03-.643-.031a11.263,11.263,0,0,0-7.8,3.8,11.882,11.882,0,0,0-2.48,9.68,2.418,2.418,0,0,0,2.952,1.676,2.457,2.457,0,0,0,1.676-2.952Z"/><path class="a" d="M119.72,240.745a1.03,1.03,0,0,1,0-.222l-.085.638a1.122,1.122,0,0,1,.059-.211l-.242.574a1.325,1.325,0,0,1,.147-.249l-.375.485a2.2,2.2,0,0,1,.372-.362l-.486.375a4.871,4.871,0,0,1,.985-.549l-.573.241a7.321,7.321,0,0,1,1.756-.517l-.638.086a6.08,6.08,0,0,1,1.525.007l-.638-.086a5.045,5.045,0,0,1,1.245.32l-.573-.242a2.877,2.877,0,0,1,.578.336l-.486-.375a3.771,3.771,0,0,0,.75.609,2.449,2.449,0,0,0,2.666-.188,2.4,2.4,0,0,0,.86-2.523,2.642,2.642,0,0,0-.643-1.1l.375.486-.017-.03a2.4,2.4,0,0,0-4.145,2.422,5.187,5.187,0,0,0,.415.545l-.617-1.059,0,.012,3.526-2.71-.039-.019.486.375a5.815,5.815,0,0,0-3.746-1.573,7.467,7.467,0,0,0-2.7.189,8.884,8.884,0,0,0-2.506,1.016,3.738,3.738,0,0,0-2.035,3.3,2.6,2.6,0,0,0,.7,1.7,2.4,2.4,0,0,0,3.394,0,2.326,2.326,0,0,0,.7-1.7Z"/><path class="c" d="M155.113,286.812v.01a.922.922,0,0,0-.05.08l-4.27-2.9c.91.57,2.03,1.29,3.25,2.1.3.2.61.41.93.62C155.023,286.752,155.063,286.782,155.113,286.812Z"/><path class="a" d="M152.713,286.812v.01l.327-1.211a.712.712,0,0,0-.049.08l3.283-.861-3.731-2.534L152,281.93l-2.423,4.144c1.456.913,2.869,1.891,4.32,2.81a2.4,2.4,0,0,0,3.284-.861,2.422,2.422,0,0,0,.242-1.849,2.579,2.579,0,0,0-1.1-1.434c-1.451-.919-2.864-1.9-4.32-2.81a2.4,2.4,0,0,0-3.284.861,2.422,2.422,0,0,0-.241,1.849,2.656,2.656,0,0,0,1.1,1.434l3.732,2.534.539.366a1.771,1.771,0,0,0,.892.285,1.812,1.812,0,0,0,.957-.043,2.508,2.508,0,0,0,1.434-1.1,2.622,2.622,0,0,0,.378-1.3,2.477,2.477,0,0,0-.7-1.7,2.4,2.4,0,0,0-3.394,0A2.494,2.494,0,0,0,152.713,286.812Z"/><path class="c" d="M162.653,253.777c-2.477-1.421-4.718-4.2-6.237-6.623s-3.432-4.9-6.2-5.6a3.3,3.3,0,0,0-2.892.422,3.057,3.057,0,0,0-.869,1.306c-1.146,3.05,1.377,7.611,2.16,10.774.436,1.762,1.614,5.361,1.884,6.984Z"/><path class="a" d="M163.864,251.7c-5.348-3.178-6.67-11.146-13.281-12.524A5.531,5.531,0,0,0,145.4,240.5a6.632,6.632,0,0,0-1.634,4.722c.061,2.989,1.389,5.715,2.264,8.513a66.044,66.044,0,0,1,2.158,7.947,2.42,2.42,0,0,0,2.952,1.676,2.453,2.453,0,0,0,1.676-2.952c-.38-2.138-1.132-4.206-1.7-6.3-.63-2.306-1.564-4.511-2.186-6.816-.075-.276-.144-.554-.2-.833-.03-.137-.056-.274-.082-.411-.081-.444.019.265-.031-.171a6.842,6.842,0,0,1-.044-.784c0-.133.081-.825.012-.477.027-.136.172-.8.137-.722.027-.062.2-.073.259-.077a1.381,1.381,0,0,1,.748.094c2.123.587,3.562,2.812,4.784,4.708a22.079,22.079,0,0,0,6.938,7.232c2.662,1.582,5.079-2.566,2.423-4.145Z"/><path class="a" d="M142.233,266.562a56.76,56.76,0,0,1-11.208,3.368,49.7,49.7,0,0,1-8.56.937,93.8,93.8,0,0,1-9.736-.98c-3.079-.322-6.778-1.069-9.779-.046a7.006,7.006,0,0,0-4.014,9.14c1.176,3.107,4.153,4.266,7.147,5.012,5.6,1.395,11.454,1.635,17.186,2.1,8.9.724,17.795-.252,26.7-.094,3.09.054,3.09-4.746,0-4.8-7.587-.135-15.167.607-22.754.347a137.045,137.045,0,0,1-15.61-1.365c-1.379-.208-2.755-.453-4.11-.784-.579-.141-1.154-.3-1.72-.48q-.417-.135-.825-.29c-.266-.1-.016,0,.032.021-.135-.058-.27-.119-.4-.186-1.706-.868-1.892-3.737.249-4.164a15.316,15.316,0,0,1,4.035.027c1.468.108,2.933.263,4.4.418,2.994.317,6.06.871,9.074.915a53.383,53.383,0,0,0,9.469-1.015,56.337,56.337,0,0,0,11.7-3.453,2.477,2.477,0,0,0,1.676-2.953,2.416,2.416,0,0,0-2.952-1.676Z"/><path class="a" d="M162.3,256.524c.12.085.238.173.357.259.272.195-.436-.368,0,.007.2.173.4.343.6.524a13.551,13.551,0,0,1,1.1,1.151,2.686,2.686,0,0,1,.28.341c-.146-.25-.173-.23,0,.008.155.215.3.434.448.658a13.837,13.837,0,0,1,.816,1.469c.051.106.1.215.149.321.131.267-.162-.429,0,0,.093.249.187.5.27.749a13.231,13.231,0,0,1,.421,1.628c.1.536.159,1.084.309,1.611a6.192,6.192,0,0,0,1.231,2.252,2.407,2.407,0,0,0,3.394,0,2.469,2.469,0,0,0,0-3.394c.154.19.288.318.07.046-.173-.215.13.485-.013-.007a8.019,8.019,0,0,1-.192-.8c-.1-.562-.184-1.125-.322-1.68a16.084,16.084,0,0,0-6.489-9.288,2.41,2.41,0,0,0-3.283.861,2.462,2.462,0,0,0,.861,3.283Z"/><path class="a" d="M44.286,201.436c10.224-.129,20.443-.5,30.666-.685,4.247-.075,8.5-.171,12.753-.038,6.735.211,13.457.647,20.2.764,8.141.142,16.283.107,24.425.051,3.087-.022,3.094-4.822,0-4.8-14.562.1-29.079-.064-43.625-.776-9.292-.454-18.683.088-27.975.321-5.48.138-10.96.294-16.442.363-3.086.039-3.094,4.839,0,4.8Z"/><path class="a" d="M41.542,216.839c3.83-.459,7.712-.6,11.56-.837,6.952-.42,13.907-.8,20.861-1.174,15.329-.831,30.661-1.61,45.984-2.552,4.852-.3,9.747-.493,14.575-1.087a2.476,2.476,0,0,0,2.4-2.4,2.415,2.415,0,0,0-2.4-2.4c-4.1.5-8.255.69-12.376.95-7.091.448-14.185.843-21.28,1.233-15.212.837-30.428,1.6-45.636,2.5-4.554.269-9.155.421-13.688.964a2.475,2.475,0,0,0-2.4,2.4,2.415,2.415,0,0,0,2.4,2.4Z"/><path class="c" d="M104.493,210.772c-1.488.082-1.127-.021-3.35-.37,3.827,1.279,3.651,6.484.59,8.52,2.067,1.084,2.118,4.133.52,5.62-1.36,1.34-6.75,1.55-8.33,2.12-9.839,3.561-2.637,12.878-21.78,20.85-6.47-2.31-14.4-5.11-20.77-7.32,2.453-10.749,4.31-15.4,9.22-27.03,4.151-9.394,4.91-15.554,11.66-21.36,5.25-3.494,37.09-4.146,30.26,7.15h-.01a3.655,3.655,0,0,1-.52.48,4.81,4.81,0,0,1-3.13,1.02c3.126.986,7.19,1.611,9.04,4.62C109.123,207.492,107.273,210.432,104.493,210.772Z"/><path class="a" d="M99.083,202.862a9.3,9.3,0,0,0,2.6-.544c-.353.147.588-.246.5-.207-.135.06-.6.286,0-.016a7.184,7.184,0,0,0,1.026-.6,6.728,6.728,0,0,0,2.793-4.4c.629-4.025-2.683-6.576-6.038-7.832a37.694,37.694,0,0,0-8.719-1.76,49.84,49.84,0,0,0-10.3-.241c-3.257.288-7.221.784-10.05,2.569a16.023,16.023,0,0,0-3.86,3.953,31.562,31.562,0,0,0-3.2,5.15c-1.394,2.813-2.425,5.841-3.6,8.75Q58,213.234,55.727,218.774c-1.227,3.01-2.595,6.007-3.637,9.087-1.291,3.817-1.866,7.839-3.031,11.693-.9,2.963,3.735,4.23,4.628,1.276.912-3.015,1.494-6.115,2.29-9.16a55.943,55.943,0,0,1,2.434-6.836c2.476-6.118,4.995-12.218,7.458-18.34a52.687,52.687,0,0,1,3.211-7.141,23.977,23.977,0,0,1,2.674-3.8,6.755,6.755,0,0,1,3.183-2.255c5.429-1.838,11.541-1.678,17.152-.883,2.543.361,5.408.707,7.676,1.988.829.468,1.895,1.209,1.431,2.306a2.9,2.9,0,0,1-.32.488c-.1.1-.2.2-.3.306q.475-.339-.153.112c.5-.322-.619.328-.354.215-.755.323-.273.184-.982.234a2.457,2.457,0,0,0-2.4,2.4,2.42,2.42,0,0,0,2.4,2.4Z"/><path class="a" d="M77.659,205.036a26.413,26.413,0,0,1,9.285-3.126c3.448-.509,7.113.125,10.534.759,2.48.46,5.661,1.131,7.644,2.77.7.578.917,1.184.647,1.8a2.226,2.226,0,0,1-2.605,1.115,2.411,2.411,0,0,0-2.4,2.4,2.461,2.461,0,0,0,2.4,2.4,6.787,6.787,0,0,0,7.336-5.01c.8-3.358-1.346-6.115-4.187-7.607a28.581,28.581,0,0,0-8.957-2.725c-1.847-.279-3.7-.48-5.557-.707a20.972,20.972,0,0,0-5.694.117,30.626,30.626,0,0,0-10.869,3.674c-2.679,1.537-.264,5.686,2.423,4.145Z"/><path class="a" d="M85.643,213.579c.3-.29-.449.228-.037.017.162-.082.314-.191.474-.278.185-.1.375-.193.566-.282.138-.065.277-.127.417-.188-.171.072-.177.075-.019.011.9-.365,1.829-.683,2.759-.977a12.427,12.427,0,0,1,6.035-.608,25.013,25.013,0,0,1,3.19.9,9.876,9.876,0,0,1,1.184.443,4.271,4.271,0,0,1,1,.628,1.277,1.277,0,0,1,.4.67c.129.448.045-.037.054.4,0,0-.065.781-.009.429a3.259,3.259,0,0,1-1.411,2.336,2.416,2.416,0,0,0,0,3.394,2.455,2.455,0,0,0,3.394,0,7.682,7.682,0,0,0,2.084-9.139c-1.451-2.736-4.667-3.592-7.42-4.394a16.334,16.334,0,0,0-9.268.159c-2.249.681-5.058,1.409-6.787,3.089-2.219,2.157,1.177,5.549,3.394,3.394Z"/><path class="a" d="M72.781,249.826c2.855-.6,5.049-2.408,7.274-4.182,1.982-1.579,4.385-2.709,6.143-4.557,1.8-1.891,2.383-4.316,3.357-6.654a20.167,20.167,0,0,1,1.339-2.669,6.584,6.584,0,0,1,1.226-1.51c2.721-2.172,6.477-1.617,9.6-2.743,4.539-1.635,5.573-8.016,1.282-10.621a14.222,14.222,0,0,0-8.1-1.526c-2.921.244-5.26,1.466-7.742,2.906-2.672,1.549-.258,5.7,2.422,4.144a14.539,14.539,0,0,1,4.891-2.2,10.762,10.762,0,0,1,5.841.668c.6.279.516.241.725.771-.056-.141-.048-.006-.054.074a2.221,2.221,0,0,1-.348,1.055c-.126.213.085-.04.122-.087a1.307,1.307,0,0,1-.354.2c.343-.147-.411.137-.574.184a21.544,21.544,0,0,1-2.452.52c-3.217.539-6.267,1.066-8.772,3.381a13.262,13.262,0,0,0-2.817,4.191c-.883,1.882-1.362,4.021-2.442,5.8-1.134,1.865-3.506,2.837-5.2,4.113-2.083,1.572-4.016,3.559-6.649,4.112-3.022.634-1.743,5.262,1.276,4.628Z"/><path class="a" d="M28.657,267.8c2.01-5.293,4.247-10.5,6.54-15.677q1.743-3.936,3.566-7.836.8-1.7,1.625-3.388.328-.665.663-1.327c.1-.2.2-.4.306-.6.064-.124.129-.248.194-.372q.234-.434-.1.149l-1.212.327a11.467,11.467,0,0,1,2.736.8c1.431.471,2.859.954,4.285,1.439q5.136,1.747,10.252,3.555,5.227,1.835,10.447,3.69,2.426.863,4.85,1.728l2.464.879,1.333.477.546.2q.877.389-.252-.41v-1.276a40.075,40.075,0,0,1-2.114,6.534q-1.2,3.483-2.472,6.939c-1.878,5.127-3.846,10.22-5.858,15.3-3.9,9.828-7.465,19.9-12.885,29-2.123,3.566-4.6,7.523-8.154,9.835-3.78,2.461-8.445,3.288-12.892,3.311-4.323.022-8.717-.6-12.255-3.265a17.657,17.657,0,0,1-5.564-7.2c.262.6-.03-.1-.082-.244-.185-.51-.345-1.029-.506-1.547q-.7-2.245-1.208-4.543a61.6,61.6,0,0,1-1.279-8.609,97.047,97.047,0,0,1,.425-17.93c.075-.7.158-1.409.242-2.113.017-.145.036-.289.055-.434-.061.473,0-.028.02-.144q.164-1.131.349-2.258c.281-1.685.6-3.364.941-5.038.8-3.935,1.722-7.846,2.7-11.742,2.071-8.285,4.385-16.511,6.862-24.684,1.873-6.18,4.067-12.246,6.015-18.4a57.515,57.515,0,0,1,6.1-14.087,25.034,25.034,0,0,1,4.251-5.048c.654-.59,1.322-1.165,1.992-1.735.3-.253.594-.5.894-.753.077-.064.153-.131.232-.192.316-.246-.672.454.182-.116,8.62-5.754,18.183-9.819,27.809-13.575q3.869-1.509,7.763-2.949l-1.849-.242a104.91,104.91,0,0,0,38.185,11c12.584,1.175,25.339-.753,37.414-4.319a78.872,78.872,0,0,0,17.213-7.005H167c5.028,2.161,10.054,4.328,15.1,6.442a66.714,66.714,0,0,1,12.781,6.565c7.233,5.055,12.471,11.892,16.367,19.739a160.459,160.459,0,0,1,8.058,20.318c2.153,6.413,3.969,12.942,5.871,19.433,2.8,9.574,5.406,19.14,6.715,29.054a143.121,143.121,0,0,1,1.168,15.128c.116,4.658.231,9.4-.716,13.984-1.352,6.546-4.653,12.178-10.307,15.7a22.53,22.53,0,0,1-9.7,3.516,42.581,42.581,0,0,1-13.36-.732,39.9,39.9,0,0,1-13.463-5.494c-4.112-2.689-8.1-5.6-12.086-8.47-5.96-4.282-11.892-8.736-17.609-13.19l-1.749-1.365-.861-.674c-.143-.112-.283-.227-.428-.335-.332-.25-.18-.387-.134-.078v1.276c.08-.536.814-1.3,1.151-1.79l1.461-2.115c.774-1.121,2.255-2.574,2.255-4.017l-.328,1.211c4.779-6.932,9.553-13.872,14.577-20.63,1.2-1.61,2.4-3.214,3.631-4.8.36-.464.876-.655-.161-.459-1.112.21-.6,0-.376.255a3.493,3.493,0,0,0,.742.454q.918.564,1.83,1.138c3.1,1.944,6.177,3.926,9.25,5.912q5.56,3.591,11.114,7.191c2.6,1.682,5.011-2.472,2.422-4.144-6.975-4.507-13.91-9.079-20.956-13.475-1.457-.909-3.087-2.283-4.911-1.9-2.191.463-3.552,3.177-4.808,4.837q-4.164,5.5-8.13,11.151-2.328,3.3-4.621,6.616-1.115,1.608-2.225,3.219c-.672.975-1.85,2.187-1.85,3.43l.328-1.211c-.928,1.483-2,2.9-2.991,4.335-1.174,1.7-2.838,3.509-1.741,5.69A8.605,8.605,0,0,0,151,298.193q1.437,1.124,2.878,2.241,6.33,4.909,12.782,9.659c5.621,4.119,11.248,8.418,17.17,12.093a46.067,46.067,0,0,0,20.347,6.466,44.832,44.832,0,0,0,10.105-.3,24.921,24.921,0,0,0,7.775-2.581A27.334,27.334,0,0,0,233.208,315.7a34.584,34.584,0,0,0,4.621-16.378,138.483,138.483,0,0,0-.967-22.53c-1.692-13.991-5.755-27.348-9.742-40.814a234.316,234.316,0,0,0-9.694-27.376,66.65,66.65,0,0,0-9.984-16.728,53.123,53.123,0,0,0-15.434-12.332c-3.344-1.775-6.915-3.087-10.4-4.558-3.624-1.529-7.237-3.086-10.851-4.64-.994-.427-2.062-1.124-3.183-.815a9.567,9.567,0,0,0-1.841.952c-1.2.649-2.435,1.245-3.683,1.805a80.97,80.97,0,0,1-7.794,2.968c-12.51,4.126-25.835,6.391-39.011,5.226a101.411,101.411,0,0,1-21.111-4.289c-3.137-.975-6.243-2.08-9.27-3.359q-1.98-.835-3.913-1.778c-.643-.312-1.27-.662-1.918-.963-1.266-.589-2.257-.092-3.46.358-6.794,2.545-13.557,5.2-20.159,8.214-5.52,2.52-11.347,5.224-16.1,9.06a37.42,37.42,0,0,0-10.5,12.965c-2.431,5.021-3.989,10.4-5.814,15.651-3.167,9.124-5.892,18.414-8.455,27.723-2.658,9.656-5.3,19.444-6.747,29.369a101.914,101.914,0,0,0-1.03,21.307A70.081,70.081,0,0,0,8.494,306.47a33.629,33.629,0,0,0,2.568,7.616A21.637,21.637,0,0,0,21.88,324.172c5.588,2.3,12.6,2.163,18.4.825a22.882,22.882,0,0,0,8.416-3.68,28.48,28.48,0,0,0,5.9-6.208,79.3,79.3,0,0,0,8.726-15.831c5.68-13.211,11-26.661,15.731-40.241q.672-1.93,1.321-3.869c.5-1.5,1.488-3.41,1.163-5.01-.411-2.029-2.1-2.584-3.83-3.2q-2.649-.951-5.3-1.892-9.993-3.562-20.012-7.053c-3.075-1.065-6.154-2.125-9.252-3.121a7.861,7.861,0,0,0-2.895-.609c-1.777.118-2.613,1.451-3.334,2.872-2.366,4.658-4.495,9.442-6.592,14.226-2.194,5-4.345,10.038-6.285,15.148a2.418,2.418,0,0,0,1.676,2.952,2.453,2.453,0,0,0,2.952-1.676Z"/><path class="a" d="M2.318,332.551q6.528,0,13.056,0l20.519-.011,26.123-.016,29.862-.019,31.74-.021,31.755-.022,29.908-.02,26.3-.017,20.6-.012q6.577,0,13.157,0h1.865c3.089,0,3.094-4.8,0-4.8q-5.532,0-11.064,0l-18.96.011-24.992.016-29.163.019-31.471.021L99.64,327.7l-30.5.02-27.333.017-22.055.012-15.043,0H2.318c-3.088,0-3.093,4.8,0,4.8Z"/><path class="a" d="M122.184,105.028c-.411,1.569-.781,3.154-1.051,4.753a5.443,5.443,0,0,0-.024,2.332,3.249,3.249,0,0,0,1.761,2.125,4.927,4.927,0,0,0,2.33.563c.529-.023,1.035-.156,1.556-.226a2.4,2.4,0,0,0,1.435-1.1,2.4,2.4,0,0,0-.861-3.284l-.574-.241a2.4,2.4,0,0,0-1.276,0c-.234.031-.465.088-.7.121l.638-.086a2.641,2.641,0,0,1-.622,0l.638.086a2.881,2.881,0,0,1-.663-.193l.573.242a3.287,3.287,0,0,1-.393-.209l.486.376a1.022,1.022,0,0,1-.162-.16l.375.486a1.282,1.282,0,0,1-.109-.2l.242.574a1.648,1.648,0,0,1-.075-.308l.086.638a2.971,2.971,0,0,1,.018-.686l-.086.638a46.035,46.035,0,0,1,1.086-4.964,2.4,2.4,0,0,0-4.629-1.276Z"/><path class="a" d="M97.428,92.9c-.816,2.653-.284,8.755,4.742,9.275,6.642-.04,7-7.418,4.76-10.887C105.1,88.451,99.716,87.269,97.428,92.9Z"/><path class="a" d="M150.13,92.9c.817,2.653.285,8.756-4.741,9.275-6.642-.04-7-7.418-4.76-10.887C142.46,88.451,147.843,87.27,150.13,92.9Z"/><path class="a" d="M113.045,127.96c2.889,2.828,7.46,3.652,11.337,3.649s8.449-.82,11.339-3.649c2.211-2.164-1.184-5.557-3.394-3.394-.1.094-.586.514-.275.262s-.01.006-.09.057c-.13.085-.257.172-.389.253-.249.154-.507.3-.769.427-.176.089-.355.172-.535.252.326-.144.057-.025-.124.039a16.363,16.363,0,0,1-5.763.953,15.861,15.861,0,0,1-5.661-.914c-.047-.016-.715-.294-.228-.078q-.226-.1-.449-.21c-.291-.143-.577-.3-.853-.469-.211-.129-.405-.294-.618-.417.619.357.047.022-.134-.155-2.209-2.163-5.606,1.229-3.394,3.394Z"/><path class="a" d="M129.956,122.565a15.2,15.2,0,0,0,7.225,8.669,2.565,2.565,0,0,0,1.849.242,2.4,2.4,0,0,0,.574-4.386,10.28,10.28,0,0,1-1.79-1.115l.486.375a12.988,12.988,0,0,1-2.212-2.246l.375.485a14.628,14.628,0,0,1-1.824-3.109l.242.574c-.106-.253-.205-.507-.3-.765a2.563,2.563,0,0,0-1.1-1.434,2.4,2.4,0,0,0-3.526,2.71Z"/></svg>