<?xml version="1.0" encoding="utf-8"?>
<!-- Uploaded to: SVG Repo, www.svgrepo.com, Generator: SVG Repo Mixer Tools -->
<svg width="800px" height="800px" viewBox="-73.6 0 403.287 403.287" xmlns="http://www.w3.org/2000/svg"><defs><style>.a{fill:#ffffff;}.b{fill:#595757;}.c{fill:#211715;}.d{fill:#6dbf6b;}.e{fill:#ffda71;}.f{fill:#f2635f;}.g{fill:#99d298;}</style></defs><path class="a" d="M161.115,64.016c4.436,7.22,8.609,17.166,9.981,24.335.861-.781,1.46-1.322,1.46-1.322a7.354,7.354,0,0,1,5.883-1.721,6.94,6.94,0,0,1,4.991,3.319,9.8,9.8,0,0,1,1.028,3.948,29.421,29.421,0,0,1-3,15.59,18.713,18.713,0,0,1-4.834,6.345,5.638,5.638,0,0,1-5.651,1.321l-1.109-.337c-.474,1.75-1,3.22-1.255,4-1.569,4.258-9.905,18.69-20.649,25.331.166,2.242.458,4.479.847,6.707.574,3.3.4,6.25,4.988,7.91.209.075,6.5,3.055,10.509,4.954-8.466,5.484-26.827,10.568-40.629,10.534-15.364-.038-32.057-4.813-40.906-11.161l8.693-3.725c.381-.164,1.377-.522,1.591-.6,4.591-1.66,4.405-4.608,4.988-7.91a64.174,64.174,0,0,0,.864-6.679A51.439,51.439,0,0,1,87,134.187a57.778,57.778,0,0,1-10.632-19.551l-1.1.266c-2.685.723-4.735-.709-6.37-2.013a18.7,18.7,0,0,1-4.834-6.344,29.425,29.425,0,0,1-3-15.591,9.8,9.8,0,0,1,1.028-3.948A7.1,7.1,0,0,1,74.2,86.991a321,321,0,0,1,37.758-37.246c.078,1.142,3.11,11.606,3.786,11.954.982.506,15.067-10.995,19.12-13.872l9.369,1.638c5.369,1.377,9.224,4.13,13.9,10.187A49.746,49.746,0,0,1,161.115,64.016Z"/><path class="b" d="M158.642,21.612a11.13,11.13,0,0,0,2.722,2.978,39.183,39.183,0,0,0,3.756,2.323c6.383,2.826,13.008,12.757,15.156,19.628,3.423,10.953,3.782,29.4.369,39.482a7.092,7.092,0,0,0-2.206-.715,7.354,7.354,0,0,0-5.883,1.721L171.1,88.35c-1.679-8.769-7.547-21.691-12.961-28.7-4.68-6.057-8.535-8.81-13.9-10.187l-2.437-.625c-1.587-.284-4.268-.717-7.007-.959-4.15,2.964-18.069,14.321-19.045,13.818-.676-.348-3.708-10.812-3.786-11.954A321.32,321.32,0,0,0,74.192,86.994a6.958,6.958,0,0,0-7.111-3.306,6.219,6.219,0,0,0-1.261.32c-3.835-4.515-3.933-23.665-1.463-33.915a48.646,48.646,0,0,1,15.482-25c-.962.042-5.541.447-5.7-.176s8.15-10.52,20.333-14.1c6.19-1.818,10.944-2.891,18.24-2.753-1.364-.67-6.053-2.361-6.683-3.4,2.938-2.011,9.25-2.333,12.809-2.245,14.765.365,34.5,7.4,39.761,19.243"/><path class="c" d="M174.254,88.726a4.853,4.853,0,0,1,6.924.811c.886,1.282.923,3.1.971,4.592a25.9,25.9,0,0,1-.347,5.342,26.738,26.738,0,0,1-3.79,9.907c-1.379,2.12-3.6,4.905-6.4,4.139-2.984-.816-4.257,3.813-1.276,4.628,7.732,2.115,12.81-6.786,14.915-12.863a31.3,31.3,0,0,0,1.691-11.375c-.15-3.79-1.051-7.337-4.369-9.541a9.818,9.818,0,0,0-11.714.966,2.421,2.421,0,0,0,0,3.394,2.45,2.45,0,0,0,3.395,0Z"/><path class="c" d="M168.386,109.819a32.949,32.949,0,0,1-2.2,9.332c-.166.488.177-.379-.006.019-.079.173-.155.347-.235.519-.2.427-.405.848-.618,1.266-.531,1.04-1.1,2.06-1.695,3.065a64.829,64.829,0,0,1-11.3,14.392,32.291,32.291,0,0,1-8.909,6.1,2.417,2.417,0,0,0-.861,3.283,2.459,2.459,0,0,0,3.284.861c6.409-2.847,11.658-8.084,15.94-13.525a63.194,63.194,0,0,0,8.659-13.815,32.613,32.613,0,0,0,2.746-11.5c.106-3.09-4.695-3.086-4.8,0Z"/><path class="c" d="M74.661,83.712a9.872,9.872,0,0,0-10.582-1.583c-3.619,1.643-5.074,5.066-5.417,8.825-.687,7.549,1.614,16.031,6.643,21.8,2.671,3.062,6.419,5.429,10.6,4.465,3.009-.694,1.735-5.323-1.276-4.628-2.708.624-5.411-2.351-6.784-4.332a26.678,26.678,0,0,1-4.482-15.3,10.352,10.352,0,0,1,.8-4.736c1.361-2.477,5.017-2.882,7.1-1.111a2.465,2.465,0,0,0,3.395,0,2.421,2.421,0,0,0,0-3.394Z"/><path class="c" d="M71.764,104.715c2.065,16.644,11.4,32.933,25.664,42.045a34.921,34.921,0,0,0,13.553,5.249,2.477,2.477,0,0,0,2.952-1.676,2.417,2.417,0,0,0-1.676-2.952c-8.139-1.209-15.08-5.852-20.7-11.69a55.483,55.483,0,0,1-12.8-21.447q-.852-2.646-1.454-5.365-.267-1.208-.478-2.428-.085-.5-.162-.994c-.024-.158-.047-.316-.07-.475a2.523,2.523,0,0,1-.033-.267,2.477,2.477,0,0,0-2.4-2.4,2.414,2.414,0,0,0-2.4,2.4Z"/><path class="c" d="M133.651,45.755c-4.5,3.209-8.646,6.68-13.027,9.956a57.4,57.4,0,0,1-5.334,3.68c-.378.221-.162.031.155-.05-.385.1.785,0,.965.055-.117-.033,1.223.533,1.257.922a1.248,1.248,0,0,0-.091-.161.964.964,0,0,1-.1-.207c-.074-.386.156.4.043.11-.441-1.125-.823-2.269-1.187-3.42q-.7-2.22-1.323-4.468c-.173-.627-.342-1.257-.5-1.889-.081-.332-.262-1.653-.155-.538a2.436,2.436,0,0,0-4.1-1.7A317.807,317.807,0,0,0,71.716,86.213a2.464,2.464,0,0,0,0,3.394,2.421,2.421,0,0,0,3.394,0,317.879,317.879,0,0,1,38.543-38.165l-4.1-1.7a38.385,38.385,0,0,0,1.91,7.421c.409,1.322.824,2.648,1.329,3.937.467,1.191.959,2.543,2.339,2.921,1.98.543,4.242-1.495,5.71-2.549,2.746-1.971,5.414-4.051,8.087-6.12,2.51-1.943,4.533-3.594,7.142-5.456a2.466,2.466,0,0,0,.861-3.283,2.418,2.418,0,0,0-3.283-.861Z"/><path class="c" d="M143.593,51.78c5.958,1.568,10.237,5.8,13.688,10.748a77.339,77.339,0,0,1,8.859,17.377,55.577,55.577,0,0,1,2.8,9.951,2.418,2.418,0,0,0,2.952,1.676,2.455,2.455,0,0,0,1.676-2.952c-1.133-6.709-3.827-13.231-6.823-19.3-3.074-6.228-6.9-12.562-12.252-17.105a24.2,24.2,0,0,0-9.62-5.022c-2.99-.787-4.265,3.842-1.276,4.629Z"/><path class="c" d="M160.667,20.453c-3.227-7.1-10.429-11.832-17.34-14.859A65.225,65.225,0,0,0,118.561.015c-4.441-.08-9.906.074-13.748,2.578a2.425,2.425,0,0,0-.861,3.284c1.7,2.368,5.315,3.2,7.544,4.26l1.211-4.472c-9.326-.143-19.222,1.867-27.395,6.48a48.111,48.111,0,0,0-9.3,6.873,18.358,18.358,0,0,0-3.929,4.56,2.628,2.628,0,0,0,.386,3.1,4,4,0,0,0,2.7.955,38.14,38.14,0,0,0,4.671-.139l-1.7-4.1A50.231,50.231,0,0,0,62.555,47.535C60.284,55.32,59.921,63.946,60.457,72c.264,3.956.724,8.034,2.354,11.685a2.417,2.417,0,0,0,3.284.861,2.459,2.459,0,0,0,.861-3.284c-.185-.415-.038-.095-.006-.01-.052-.139-.108-.278-.156-.418-.1-.3-.2-.6-.293-.9-.226-.762-.405-1.537-.559-2.316a40.107,40.107,0,0,1-.61-4.6,83.558,83.558,0,0,1-.082-11.777c.487-8.161,2.346-15.838,6.558-22.92a44.817,44.817,0,0,1,9.728-11.523c1.59-1.331.3-4.2-1.7-4.1-.866.043-1.731.112-2.6.145-.535.019-1.072.034-1.608.016-.19-.006-.38-.016-.569-.032s-.14-.01.172.024q-.9-.249.97.859l.328,1.212c.026.25-.518,1.25-.171.831.138-.167.254-.37.381-.547-.442.618.166-.188.336-.384.3-.341.6-.673.913-1a39.308,39.308,0,0,1,5.086-4.5,42.91,42.91,0,0,1,8.177-4.8,52.911,52.911,0,0,1,9.584-2.91,50.01,50.01,0,0,1,11.867-1.143c2.275.035,3.41-3.422,1.211-4.472-1.116-.533-2.246-.957-3.331-1.435-.638-.281-1.274-.57-1.888-.9-.223-.12-.441-.247-.658-.378s-.135-.091.055.173l-.861,3.284c2.868-1.869,7.084-1.924,10.454-1.93a54.342,54.342,0,0,1,10.738,1.111c7.508,1.5,15.11,4.19,21.28,8.831a21.249,21.249,0,0,1,6.815,8.126,2.419,2.419,0,0,0,3.284.861,2.459,2.459,0,0,0,.861-3.284Z"/><path class="c" d="M163.784,28.928c3.551,1.576,6.353,4.635,8.6,7.727a37.158,37.158,0,0,1,5.666,10.816c2.464,8.084,2.924,16.919,2.437,25.311a48.319,48.319,0,0,1-2.214,12.768c-1,2.931,3.639,4.189,4.629,1.276a51.142,51.142,0,0,0,2.271-12.387,88.067,88.067,0,0,0-.051-14.2,70.188,70.188,0,0,0-2.182-13.144,40.558,40.558,0,0,0-5.861-12.083c-2.785-4.01-6.311-8.2-10.873-10.224a2.477,2.477,0,0,0-3.284.861,2.418,2.418,0,0,0,.861,3.284Z"/><path class="c" d="M92.1,162.362a20.123,20.123,0,0,0,4.512-2.079A8.275,8.275,0,0,0,99.643,156a31.906,31.906,0,0,0,.763-4.112c.4-2.331.723-4.676.9-7.035a2.411,2.411,0,0,0-2.4-2.4,2.46,2.46,0,0,0-2.4,2.4,54.546,54.546,0,0,1-.7,5.616c-.216,1.26-.342,2.549-.657,3.79-.066.26-.153.511-.232.768-.156.512.247-.461,0,.014-.061.118-.118.238-.184.354s-.142.229-.211.345c-.27.452.345-.348-.03.041-.206.215-.417.414-.636.617.4-.37-.045.018-.142.081-.148.095-.3.183-.453.267s-.332.173-.5.254c-.657.317.4-.131-.339.133-.534.191-1.068.384-1.591.6a2.468,2.468,0,0,0-1.677,2.953c.36,1.111,1.711,2.191,2.953,1.676Z"/><path class="c" d="M145.56,144.835a88.68,88.68,0,0,0,1.359,10,8.547,8.547,0,0,0,4.773,6.318,8.628,8.628,0,0,1,1.466.608c-.484-.366-.678-.3-.376-.155.23.114.466.216.7.325q1.482.691,2.959,1.392,3.663,1.73,7.322,3.466a2.467,2.467,0,0,0,3.284-.861,2.421,2.421,0,0,0-.861-3.283c-3.713-1.761-7.4-3.605-11.16-5.264a6.73,6.73,0,0,1-2.69-1.631c.307.354-.183-.3-.236-.39-.067-.121-.13-.244-.188-.37q.137.337.044.094a10.39,10.39,0,0,1-.408-1.525,77.477,77.477,0,0,1-1.187-8.724,2.459,2.459,0,0,0-2.4-2.4,2.419,2.419,0,0,0-2.4,2.4Z"/><path class="a" d="M158.142,314.512c27.958-.122,53.5-.231,71.561-.3a25.668,25.668,0,0,0,2.465-5.2c2.684-7.855,5.124-13.2,4.446-22.393-2.145-29.061-13.366-69.794-21.685-90.73a35.358,35.358,0,0,0-10.4-13.719A72.842,72.842,0,0,0,188.3,172.3c-7.3-2.955-14.025-5.871-21.253-8.935a2.021,2.021,0,0,0-1.976.211c-7.923,5.762-27.22,11.331-41.59,11.337-16.382.006-34.291-5.369-42.595-12.321-8.2,2.785-27.941,10.751-36.109,15.412-10.59,5.755-16.492,15.655-20.125,25.695-4.1,10.972-13.72,45.323-15.568,61.108-1.4,11.917-1.884,23.409,2.818,31.331,1.517,2.556,6.672,7.161,15.168,8.789,11.131,2.133,20.375-3.79,26.832-11.948-.127,3.723-.237,6.969-.237,6.969-.017.194-.438,7.294-.884,14.9l-.009.116C85.166,314.833,123.506,314.663,158.142,314.512Z"/><path class="c" d="M51.1,299.768c-.4,4.956-.622,9.933-.927,14.9a2.414,2.414,0,0,0,2.4,2.4,2.456,2.456,0,0,0,2.4-2.4c.3-4.962.522-9.939.927-14.9a2.412,2.412,0,0,0-2.4-2.4,2.461,2.461,0,0,0-2.4,2.4Z"/><path class="c" d="M230.6,316.937q11.584-.009,23.169-.006c3.088,0,3.093-4.8,0-4.8q-11.584,0-23.169.006c-3.089,0-3.094,4.8,0,4.8Z"/><path class="c" d="M2.318,317.216q25.164,0,50.328-.038,31.737-.036,63.475-.086l36.556-.054c3.089,0,3.094-4.805,0-4.8q-32.583.048-65.167.1-29.655.042-59.31.07-12.94.012-25.882.013c-3.088,0-3.093,4.8,0,4.8Z"/><path class="c" d="M80.479,160.177c-5.448,1.838-10.8,3.965-16.124,6.141-6.037,2.47-12.078,5.007-17.9,7.964A44.969,44.969,0,0,0,30.3,187.641a64.245,64.245,0,0,0-8.623,17.3c-3.867,11.05-6.948,22.42-9.8,33.768-3.2,12.735-6.092,25.713-6.256,38.906-.086,6.935.576,15.286,5.121,20.912,4.106,5.085,11.054,7.916,17.368,8.753,14.351,1.9,26.3-8.794,32.6-20.717,3.514-6.647,6.565-13.579,9.624-20.441,2.066-4.639,4.081-9.3,5.957-14.022a78.48,78.48,0,0,0,3.642-10.556,10.937,10.937,0,0,0,.423-3.388c-.2-2.4-2.079-2.945-4.043-3.768-5.9-2.474-11.895-4.721-17.92-6.866A155.794,155.794,0,0,0,43.065,222.6a6.747,6.747,0,0,0-3.516-.268c-2.144.666-3.029,3.593-3.977,5.409-1.88,3.6-3.713,7.226-5.406,10.919q-2.631,5.742-4.84,11.664A2.42,2.42,0,0,0,27,253.278a2.452,2.452,0,0,0,2.952-1.676,193.1,193.1,0,0,1,9.762-21.436q.684-1.309,1.373-2.614c.057-.107.454-.813.438-.829.059.06-1.227.03-1.08.217.05.063.478.093.548.108.806.171,1.6.383,2.4.6,2.382.661,4.737,1.422,7.083,2.2,5.863,1.952,11.673,4.07,17.436,6.3,2.489.963,5.329,2.09,7.546,3.037.234.1.467.218.707.3.473.168.188.17.085-.026-.179-.344-.593-.692-.638-.852.084.3.02-.761-.027-.154-.015.191-.021.393-.025.586-.012.589.121-.586-.02.126-.06.3-.116.6-.185.9-.155.671-.34,1.336-.538,2-.5,1.67-1.08,3.315-1.685,4.949-1.579,4.263-3.262,8.267-4.978,12.224-3.3,7.6-6.747,15.141-10.41,22.571C53.268,290.889,46.192,300,35.79,302.275c-6.369,1.393-13.388-.5-18.621-4.268a16.946,16.946,0,0,1-2.353-2.09c-.169-.181-.327-.37-.491-.556-.365-.414.064.137-.146-.186-.316-.486-.612-.977-.881-1.491a26.74,26.74,0,0,1-2.636-9.761,70.139,70.139,0,0,1,.008-11.854c.156-2.141.371-4.278.616-6.411.177-1.545.228-1.964.438-3.329.839-5.459,2.029-10.866,3.3-16.24,2.742-11.645,5.9-23.219,9.54-34.617,3.517-11.027,8.048-22.325,17.853-29.267,4.73-3.348,10.24-5.685,15.523-8q8.552-3.752,17.3-7.041c2.162-.818,4.331-1.617,6.521-2.356,2.911-.982,1.662-5.62-1.276-4.628Z"/><path class="c" d="M217.138,194.964a38.852,38.852,0,0,0-8.705-12.5,65.719,65.719,0,0,0-12.29-8.784c-4.9-2.781-10.153-4.761-15.322-6.959q-4.054-1.722-8.1-3.468c-2.485-1.067-5.623-3.222-8.334-1.788-1.554.822-2.964,1.906-4.545,2.707a54.735,54.735,0,0,1-5.356,2.342,96.685,96.685,0,0,1-13.813,4.032,79.183,79.183,0,0,1-29.181,1.027,85.146,85.146,0,0,1-16.771-4.337,41.814,41.814,0,0,1-11.908-6.443,2.467,2.467,0,0,0-3.394,0,2.419,2.419,0,0,0,0,3.394c6.988,5.816,16.178,8.934,24.931,10.9a84.458,84.458,0,0,0,30.727,1.332,89.623,89.623,0,0,0,26.775-7.9c.752-.372,1.5-.762,2.222-1.179a9.98,9.98,0,0,0,2.236-1.414c-.173.184.241-.2.248-.2-.322.15-.2-.05.18.14.645.327,1.345.576,2.011.862l4.186,1.8c5.377,2.308,10.909,4.372,16.184,6.9a73.965,73.965,0,0,1,13.893,8.694,34.736,34.736,0,0,1,9.98,13.263,2.418,2.418,0,0,0,3.284.861,2.46,2.46,0,0,0,.861-3.284Z"/><path class="a" d="M214.822,322.864c-5.45,5.232-12.208,11.118-15.26,12.426-1.254.537-6,2.057-8.713,1.173a61.114,61.114,0,0,1-6.876,7.282c-1.537,1.306-3.385,2.543-5.393,2.355s-4.1-2.627-3.579-4.561a23.491,23.491,0,0,1-4.8,4.8c-1.851,1.352-3.862,2.144-6.075,1.546s-3.847-3.35-2.646-5.3a5.592,5.592,0,0,1-7.491,1.18c-2.274-1.642-2.707-5.529-1.082-7.815-1.726,2.148-4.62,2.679-6.491.656s-1.914-4.443-1.139-7.087,6.717-12.978,8.138-14.933c3.546-4.878,6.835-9.494,12.841-10.049,5.266-.486,10.509,2.6,14.676,6.129,3.955-.826,6.939-2.409,10.56-4.634,0,0,8.378-9.729,16.674-3.211S214.822,322.864,214.822,322.864Z"/><path class="c" d="M190.985,265.97c-.033.247.058-.506.081-.606l4.715.638c.727-6.073,1.567-12.134,2.351-18.2q1.947-15.082,3.888-30.165c.369-2.88.75-5.758,1.1-8.64a2.413,2.413,0,0,0-2.4-2.4,2.458,2.458,0,0,0-2.4,2.4c-.848,7.016-1.79,14.021-2.694,21.03q-1.892,14.685-3.792,29.37c-.284,2.2-.588,4.4-.852,6.605-.323,2.692,4.118,3.246,4.714.638.05-.219.06-.447.09-.67a2.413,2.413,0,0,0-2.4-2.4,2.461,2.461,0,0,0-2.4,2.4Z"/><path class="c" d="M189.2,304.6a43.648,43.648,0,0,1-4.1,2.2c-.175.08-.352.157-.528.236q-.353.151.175-.072l-.268.109q-.469.191-.947.361c-.745.267-1.5.5-2.27.69a2.4,2.4,0,0,0,1.276,4.629,34.587,34.587,0,0,0,9.084-4.012A2.4,2.4,0,0,0,189.2,304.6Z"/><path class="c" d="M189.632,316.371c-2.523-2.384-4.426-5.248-7.1-7.5a32.955,32.955,0,0,0-8.727-5.467,16.177,16.177,0,0,0-10.007-.88,15.951,15.951,0,0,0-7.207,4.313,51.958,51.958,0,0,0-7.95,10.923c-2.024,3.48-4.392,7.142-5.635,11-1.088,3.371-.705,7.274,1.982,9.8,2.867,2.692,7.183,1.932,9.624-.916l-3.77-2.909a8.4,8.4,0,0,0,1.34,10.632,7.946,7.946,0,0,0,11-1.088l-3.769-2.908c-2.334,4.317,1.47,8.914,5.942,9.108,4.933.215,8.971-4.155,11.719-7.726l-4.386-1.849a6.41,6.41,0,0,0,2.924,6.569c2.346,1.578,5.246,1.161,7.589-.205,4.815-2.808,8.245-7.906,11.846-12.022,2.026-2.316-1.355-5.725-3.394-3.394a116.678,116.678,0,0,1-8.4,9.333c-1.079.994-2.674,2.624-4.275,2.537-.711-.039-1.768-1.028-1.664-1.542.565-2.794-2.754-3.971-4.386-1.849-1.549,2.012-3.749,4.449-6.264,5.2a2.84,2.84,0,0,1-2.473-.251,1.986,1.986,0,0,1-.643-.883.61.61,0,0,1,.008-.6,2.411,2.411,0,0,0-.619-3.1,2.375,2.375,0,0,0-3.151.188c-1.014,1.287-3.042,2.045-4.444.895-1.349-1.1-1.242-3.29-.36-4.622,1.488-2.246-1.986-4.99-3.77-2.908-1.3,1.514-2.98,1.658-3.8-.447a4.992,4.992,0,0,1-.028-2.863,10.627,10.627,0,0,1,.307-1.09c.041-.119.089-.235.133-.353.2-.541-.227.5.039-.091a105.052,105.052,0,0,1,5.194-9.7A49.939,49.939,0,0,1,159.244,311a12.3,12.3,0,0,1,5.142-3.65,11.292,11.292,0,0,1,7.346.379,25.555,25.555,0,0,1,7.727,4.814c2.541,2.174,4.364,4.939,6.779,7.221,2.245,2.121,5.645-1.267,3.394-3.394Z"/><path class="c" d="M213.125,321.167a117.332,117.332,0,0,1-11.282,9.867c-.709.522-1.43,1.031-2.183,1.488-.323.195-.674.35-.992.55-.394.247.311-.109.043-.01-.15.056-.3.115-.45.169a15.577,15.577,0,0,1-6.111,1.076,2.4,2.4,0,1,0,0,4.8,18.685,18.685,0,0,0,11.878-3.754,122.8,122.8,0,0,0,12.491-10.792c2.234-2.141-1.163-5.532-3.394-3.394Z"/><path class="c" d="M154.983,337.155c3.327-4.63,6.264-9.529,9.628-14.133a2.409,2.409,0,0,0-.861-3.284,2.468,2.468,0,0,0-3.284.861c-3.364,4.605-6.3,9.5-9.628,14.133a2.411,2.411,0,0,0,.861,3.284,2.466,2.466,0,0,0,3.284-.861Z"/><path class="c" d="M163.848,343.441c1.494-2.191,2.923-4.426,4.412-6.62.73-1.074,1.475-2.138,2.247-3.182.2-.267.4-.532.6-.8l.153-.2c-.093.119-.089.115.011-.014s.21-.267.316-.4q.689-.867,1.407-1.708a2.4,2.4,0,1,0-3.394-3.395c-3.7,4.349-6.686,9.187-9.9,13.893a2.416,2.416,0,0,0,.861,3.284,2.46,2.46,0,0,0,3.284-.861Z"/><path class="c" d="M177.073,342.75q1.059-1.423,2.141-2.83l-.375.485q1.945-2.515,4-4.944a2.566,2.566,0,0,0,.7-1.7,2.4,2.4,0,0,0-4.1-1.7c-2.265,2.679-4.423,5.445-6.515,8.261a2.409,2.409,0,0,0-.242,1.849,2.4,2.4,0,0,0,2.952,1.676,2.785,2.785,0,0,0,1.434-1.1Z"/><path class="a" d="M236.489,286.967c.652,9.19-1.8,14.533-4.51,22.381-3.08,8.933-10.957,14.966-14.818,14.388-6.765-9.629-9.994-16.3-22.486-17.71-1.339-.151-6.374,1.316-7.925,1.142-.774-.086,7.652-12.5,7.538-15.26"/><path class="c" d="M200.716,293.9l11.073-.773a2.4,2.4,0,1,0,0-4.8l-11.073.773a2.4,2.4,0,0,0,0,4.8Z"/><path class="c" d="M212.751,196.814c6.376,16.22,11.037,33.207,14.893,50.185,2.139,9.414,3.99,18.915,5.259,28.488a124.187,124.187,0,0,1,1.283,13.552,39.472,39.472,0,0,1-2.4,13.615c-1.629,4.819-3.123,9.722-6.53,13.627a19.254,19.254,0,0,1-4.666,4.034c-.368.217-.745.42-1.131.6-.447.209-.182.079-.082.04q-.31.123-.632.221c-.17.052-1.134.228-.542.168a4.613,4.613,0,0,1-1.044-.009l2.072,1.189c-3.091-4.409-5.929-9.279-9.984-12.895a22.963,22.963,0,0,0-6.73-4.178,21.477,21.477,0,0,0-8.312-1.829,26.559,26.559,0,0,0-4.053.668c-.732.147-1.464.3-2.2.414-.295.048-.071.017-.009.009-.153.02-.308.039-.462.049-.4.025-.862-.162-.115.084l1.059.617-.016-.016.618,1.059c.043.114-.033,1.284.035,1,.1-.419-.19.347-.083.19.206-.3.343-.685.519-1.007.5-.925,1.037-1.832,1.566-2.741,1.312-2.254,2.648-4.5,3.825-6.831a25.912,25.912,0,0,0,1.439-3.27,9.936,9.936,0,0,0,.288-3.742q-.215-5.388-.376-10.779-.209-6.683-.455-13.365c-.118-3.079-4.918-3.095-4.8,0,.32,8.341.528,16.686.866,25.026a6.833,6.833,0,0,0,.033,1.111c-.083-.384.113-.477-.027-.036-.062.2-.117.393-.185.587-.048.137-.3.766-.214.561.1-.231-.215.463-.263.564q-.193.41-.4.815c-.315.628-.644,1.247-.98,1.863-1.32,2.421-2.757,4.774-4.11,7.176a13.217,13.217,0,0,0-1.248,2.53,2.565,2.565,0,0,0,2.447,3.416,21.536,21.536,0,0,0,4.827-.721c.746-.15,1.493-.314,2.246-.42-.437.062.294-.023.4-.023a6.7,6.7,0,0,1,1,.1,20.449,20.449,0,0,1,9.447,3.651,30.47,30.47,0,0,1,5.972,6.594c1.106,1.547,2.168,3.124,3.249,4.689.654.947,1.287,2.272,2.475,2.6a5.506,5.506,0,0,0,2.189.028c3.181-.443,6.051-2.552,8.32-4.709a28.818,28.818,0,0,0,6.852-10.282,90.585,90.585,0,0,0,4.055-12.327c2.006-8.465.612-17.29-.575-25.78-1.224-8.757-2.892-17.45-4.825-26.076a374.553,374.553,0,0,0-13.517-47.039q-.8-2.174-1.643-4.327a2.472,2.472,0,0,0-2.952-1.677,2.418,2.418,0,0,0-1.676,2.953Z"/><path class="d" d="M109.1,149.359c.531-2.479,1.121-5.076,2.813-6.955s4.889-2.665,6.767-.973c.679.619,1.132,1.495,1.909,1.987,2.105,1.337,4.78-.886,7.249-.591,3.1.364,4.279,4.181,6.521,6.345,1.181,1.141,2.754,1.888,3.679,3.246,1.9,2.813.039,6.777-2.666,8.813a13.6,13.6,0,0,1-13.849,1.2"/><path class="a" d="M125.493,157.8c-3.263,3.012-6.049,6.9-9.6,9.318-1.348.918-3.144,1.356-4.5,2.268-4.562,3.075-6.565,5.776-9.557,9.068l-8.659-1.642c1.548-1.493,4.854-4.572,5.819-6.494,1.425-2.838,1.317-5.856,2.633-8.746,1.327-2.914,3.906-5.03,6.4-7.039l7.057-5.686a29.123,29.123,0,0,0,4.067,5.024A31.87,31.87,0,0,0,125.493,157.8Z"/><path class="c" d="M94.877,178.512a49.417,49.417,0,0,0,5.292-5.612c1.921-2.537,2.218-5.63,3.04-8.605.836-3.029,2.918-5.086,5.272-7.045,2.734-2.275,5.536-4.472,8.305-6.7a2.416,2.416,0,0,0,0-3.394,2.457,2.457,0,0,0-3.394,0c-2.769,2.231-5.571,4.428-8.3,6.7a19.257,19.257,0,0,0-5.948,7.5c-1.109,2.773-.985,6.166-2.757,8.645a39.125,39.125,0,0,1-4.9,5.122c-2.23,2.146,1.166,5.537,3.394,3.394Z"/><path class="c" d="M117.961,152.247c-2.408,2.122-4.866,4.187-7.31,6.267a2.4,2.4,0,0,0,1.7,4.1,2.685,2.685,0,0,0,1.7-.7c2.444-2.079,4.9-4.144,7.31-6.267a2.414,2.414,0,0,0,0-3.394,2.458,2.458,0,0,0-3.394,0Z"/><path class="c" d="M123.8,156.106c-1.991,1.861-3.752,3.941-5.654,5.888a27.229,27.229,0,0,1-2.782,2.566,16.336,16.336,0,0,1-3.469,1.86c-4.657,2.077-8.108,6.285-11.436,9.994-2.058,2.294,1.326,5.7,3.394,3.394,3.323-3.7,6.529-7.521,11.19-9.557,5.058-2.209,8.229-7.085,12.151-10.751,2.262-2.114-1.138-5.5-3.394-3.394Z"/><path class="c" d="M111.417,150c.417-1.936.785-4.179,2.073-5.765.681-.84,2.1-1.666,3.18-1.26.637.238,1.011.971,1.458,1.461a5.4,5.4,0,0,0,2.923,1.695c2.18.445,3.918-.749,6-.923,1.248-.1,1.956.845,2.679,1.849a22.44,22.44,0,0,0,3.359,4.194c1.139.972,3.136,1.874,3.319,3.53a5.371,5.371,0,0,1-1.921,4.065c-3.008,2.881-8.089,3.232-11.75,1.515a2.467,2.467,0,0,0-3.283.862,2.419,2.419,0,0,0,.861,3.283,16.252,16.252,0,0,0,15.319-.549c4.168-2.56,7.592-8.5,4.255-13.051-1.391-1.895-3.612-2.868-4.983-4.8-1.268-1.782-2.463-3.831-4.451-4.906-2.47-1.336-4.84-.552-7.366.093-.923.236-1.172.2-1.791-.519a7.122,7.122,0,0,0-3.061-2.324,7.846,7.846,0,0,0-7.788,2.018c-2.221,2.165-3.029,5.323-3.66,8.252-.649,3.012,3.977,4.3,4.628,1.276Z"/><path class="c" d="M53.252,220.388c1.531-5.4,2.28-10.987,4.251-16.268,1.039-2.787,2.44-5.425,3.71-8.111a47.258,47.258,0,0,1,3.544-6.534,17.611,17.611,0,0,1,12.309-7.769c5.853-1.2,12.092-.96,18.023-.476a15.158,15.158,0,0,1,3.933.587,2.389,2.389,0,0,1,1.493,1.433c.054.134.1.753.064.142a5.024,5.024,0,0,1,0,.506c.028-.7.051-.2-.079.022a4.807,4.807,0,0,1-.28.5c.245-.33.023-.047-.043.009-.2.182-.218.194-.047.038a4.7,4.7,0,0,1-.434.241c-.37.142-1.364.438-1.975.593-2.992.76-1.724,5.39,1.276,4.629,2.863-.727,5.357-1.943,6.22-4.987.717-2.529-.759-5.281-2.8-6.718-2.488-1.752-6.09-1.734-9.017-1.907-3.239-.19-6.513-.288-9.757-.181A44.934,44.934,0,0,0,72.8,177.808a21.007,21.007,0,0,0-8.332,4.75c-4.438,3.987-6.6,9.518-9.182,14.741a56.8,56.8,0,0,0-4.216,11.43c-.86,3.452-1.478,6.958-2.448,10.382-.844,2.978,3.786,4.248,4.628,1.277Z"/><path class="c" d="M76.8,192.244a21.609,21.609,0,0,1,7.1-2.337,53.941,53.941,0,0,1,11.013-.324,10.331,10.331,0,0,1,4.419.987c.768.478.848,1.078.548,2.051-.074.239-.034.286-.037.2,0-.046-.181.088-.181.108,0-.028.5-.179.251-.12-.432.1-.853.226-1.291.307-1.1.2-1.917.278-3.215.4-2.477.237-5.008.269-7.464.687a2.419,2.419,0,0,0-1.676,2.952,2.456,2.456,0,0,0,2.952,1.677c.164-.028-.641.06-.052.008.232-.02.463-.046.695-.066.616-.055,1.233-.1,1.85-.149,1.523-.118,3.046-.236,4.565-.395,3.1-.327,6.638-.434,8.006-3.762,1.691-4.111-.79-7.893-4.861-8.991-4.283-1.155-8.8-.83-13.17-.56a29.7,29.7,0,0,0-6.8,1.037,34.179,34.179,0,0,0-5.079,2.141,2.423,2.423,0,0,0-.861,3.283,2.45,2.45,0,0,0,3.284.861Z"/><path class="c" d="M81.762,200.467c-.6.5-.076.1.1-.007.111-.064.612-.263.105-.062.481-.19.971-.355,1.465-.507.927-.284,1.868-.525,2.813-.738.374-.084.749-.165,1.126-.232.2-.037.41-.069.615-.1-.506.073.311-.031.412-.041a23.965,23.965,0,0,1,3.513-.116c.25.012.5.034.747.052.3.033.319.035.06,0q.216.034.429.081c.2.044.388.1.579.159.289.092-.012-.025.319.126a8.021,8.021,0,0,1,.856.451c.079.048.6.433.26.153.177.145.328.31.492.467.18.211.2.23.064.055q.141.2.266.408a4.554,4.554,0,0,1,.36.693c-.129-.34.046.252.061.321-.1-.466-.01.4-.013.523-.015.568.119-.228-.059.324-.042.129-.218.731-.187.655s-.246.477-.318.6c-.018.03-.443.575-.188.287-.075.085-.728.628-.358.37a2.462,2.462,0,0,0-.861,3.283,2.419,2.419,0,0,0,3.283.861,8.261,8.261,0,0,0,3.5-6.615,7.822,7.822,0,0,0-3.68-6.4c-3.681-2.418-8.76-1.877-12.839-.927-2.146.5-4.595,1.036-6.317,2.483a2.421,2.421,0,0,0,0,3.394,2.451,2.451,0,0,0,3.394,0Z"/><path class="c" d="M84.857,209.079a12.061,12.061,0,0,1,4.8-1.636,10.929,10.929,0,0,1,5.219,1.086c-.152-.075-.942-.6.248.172-.075-.048-.714-.556-.1-.117.252.181.234.361.1.132.008.012-.064-.391.037.018a1.784,1.784,0,0,1-.463,1.723,7.026,7.026,0,0,1-.729.735c-.142.131-.683.543-.251.248-.329.225-.086.048.024.023-.151.034-.3.1-.451.133a3.919,3.919,0,0,1-.849.146c-3.11.3-6.174,0-8.98,1.691-3.048,1.832-3.7,5.7-5.539,8.471-1.245,1.871-3.546,2.48-5.287,3.752a24.644,24.644,0,0,0-4.437,4.635,2.474,2.474,0,0,0,0,3.4,2.419,2.419,0,0,0,3.394,0,20.126,20.126,0,0,1,3.936-4.211c2.164-1.461,4.461-2.332,6.08-4.5,1.337-1.792,2.1-3.994,3.182-5.944.181-.325.37-.644.574-.955.222-.336-.362.356.075-.1.092-.1.182-.191.279-.284.081-.078.347-.24-.012,0a3.16,3.16,0,0,1,.367-.221,4.267,4.267,0,0,1,.866-.355c.4-.133.806-.254,1.217-.351.363-.087-.63.041.091-.009.166-.012.332-.025.5-.034.879-.053,1.761-.058,2.64-.1,1.908-.1,3.854-.266,5.384-1.513a8.1,8.1,0,0,0,3.248-5.352,5.664,5.664,0,0,0-.745-3.453c-.205-.344-.889-1.139-.3-.39a5.4,5.4,0,0,0-1.475-1.4,14.049,14.049,0,0,0-7.46-1.876c-2.8.01-5.142,1.105-7.6,2.3a2.423,2.423,0,0,0-.861,3.284,2.451,2.451,0,0,0,3.284.861Z"/><path class="c" d="M122.589,131.689c-.074-.072-.144-.152-.22-.224-.366-.345.192.334.046.059-.048-.089-.109-.172-.158-.261-.232-.42.081.024.014.089.017-.017-.173-.523-.189-.587-.026-.1-.043-.2-.068-.3-.133-.52.03.553,0,.013a11.023,11.023,0,0,1-.017-1.36c.006-.106.02-.212.024-.318.012-.344-.133.595-.013.069.053-.229.1-.456.174-.68.156-.468,0,.087-.043.075,0,0,.155-.3.142-.275.068-.122.218-.495.349-.538-.066.022-.321.347-.082.125.086-.081.177-.169.259-.255.209-.219-.409.262-.148.112.1-.058.2-.12.3-.183.4-.26-.415.122-.114.043.093-.024.185-.06.279-.084.421-.107.041.107-.119-.008a1.97,1.97,0,0,0,.313-.023c.23-.015.46-.043.691-.05.112,0,.226,0,.338,0,.528-.022-.5-.126.006-.01.206.048.405.109.608.167.5.141-.35-.194-.063-.027.092.053.191.1.285.149.119.067.231.145.35.211.295.165-.054-.095-.108-.1.142,0,.524.494.61.59.03.033.221.267.226.265-.031.011-.323-.473-.066-.071.118.184.225.371.337.558.216.364-.026-.1-.038-.111.075.068.1.322.131.422s.046.232.077.345q.048.273-.021-.2c.011.088.018.177.024.265a7.273,7.273,0,0,1,.014.8c0,.118-.014.235-.022.353-.017.289.1.121.02-.113.054.167-.106.518-.155.687-.032.113-.074.222-.107.334-.149.5.2-.347-.037.068-.059.1-.112.2-.173.3l-.095.148q-.178.251,0,0l.092-.123c-.049.058-.1.114-.155.168-.07.072-.15.137-.22.21-.22.23.5-.3.065-.05-.088.051-.171.11-.259.161a1.715,1.715,0,0,0-.27.142c.318-.127.392-.157.222-.092-.071.027-.144.053-.217.076-.1.031-.2.058-.3.082-.233.057-.551,0,.033.018-.175,0-.357.032-.532.037s-.336-.007-.5-.01c-.242,0-.1-.16.34.05a1.726,1.726,0,0,0-.3-.064c-.107-.028-.655-.226-.226-.06s-.206-.13-.316-.2-.2-.127-.3-.194c-.071-.05-.389-.341-.133-.094.291.28-.131-.119-.159-.142-.147-.127-.29-.257-.434-.389a2.4,2.4,0,0,0-3.394,3.394,9.391,9.391,0,0,0,3.581,2.283,7.264,7.264,0,0,0,3.465.032c3.368-.7,5.24-3.95,5.28-7.2a7.857,7.857,0,0,0-5.286-7.548,6.372,6.372,0,0,0-2.058-.331,9.218,9.218,0,0,0-2.4.274,6.127,6.127,0,0,0-3.565,2.832,8.358,8.358,0,0,0-1.025,4.729,7.222,7.222,0,0,0,2.01,4.928,2.4,2.4,0,0,0,3.394-3.394Z"/><path class="c" d="M121.656,104.862c-.4,1.528-.761,3.071-1.024,4.629a5.361,5.361,0,0,0-.023,2.3,3.224,3.224,0,0,0,1.743,2.106,4.873,4.873,0,0,0,2.3.558c.521-.023,1.019-.154,1.532-.223a2.4,2.4,0,0,0,1.435-1.1,2.453,2.453,0,0,0,.242-1.849,2.426,2.426,0,0,0-1.1-1.434l-.574-.242a2.4,2.4,0,0,0-1.276,0c-.228.03-.452.086-.681.118l.638-.086a2.551,2.551,0,0,1-.605,0l.638.086a2.8,2.8,0,0,1-.646-.188l.574.242a3.182,3.182,0,0,1-.383-.2l.485.375a1,1,0,0,1-.157-.155l.375.485a1.166,1.166,0,0,1-.106-.193l.242.574a1.654,1.654,0,0,1-.074-.3l.086.639a2.984,2.984,0,0,1,.018-.668l-.085.638a44.925,44.925,0,0,1,1.056-4.834,2.4,2.4,0,1,0-4.628-1.276Z"/><path class="c" d="M97.612,93.073c-.8,2.583-.277,8.525,4.617,9.031,6.467-.039,6.812-7.223,4.634-10.6C105.081,88.738,99.839,87.588,97.612,93.073Z"/><path class="c" d="M148.928,93.073c.8,2.583.277,8.525-4.616,9.031-6.468-.039-6.813-7.223-4.635-10.6C141.459,88.738,146.7,87.588,148.928,93.073Z"/><path class="a" d="M64.552,369.2c-.116-.265-.229-.533-.341-.8-2.239-5.387-4.1-12.053-4.1-17.913,0-11.3,14.42-16.577,29.568-19.709,12.12-2.506,19.08-2.877,31.277-2.859,12.224-.018,19.184.352,31.309,2.859,14.629,3.025,29.675,8.193,29.678,18.619a52.908,52.908,0,0,1-11.53,32.974c-16.471,19.98-45.372,20.844-68.934,16.188C84.954,395.3,71.356,384.844,64.552,369.2Z"/><path class="c" d="M66.624,367.992a46.364,46.364,0,0,1-4.1-16.68,11.021,11.021,0,0,1,4.244-9.162c3.378-2.936,7.791-4.69,11.992-6.067A120.13,120.13,0,0,1,94.917,332.2c11.106-2,22.413-2.082,33.665-1.812a127.207,127.207,0,0,1,32.522,5.023c4.672,1.363,9.385,3.053,13.4,5.873a14.007,14.007,0,0,1,3.69,3.676,8.088,8.088,0,0,1,1.356,4.438,49.9,49.9,0,0,1-10.068,30.33c-11.94,15.578-32.348,19.616-50.94,18.613-9.243-.5-19.046-1.739-27.55-5.582A47.635,47.635,0,0,1,70.026,374.5a52.648,52.648,0,0,1-3.4-6.512,2.415,2.415,0,0,0-3.283-.861,2.46,2.46,0,0,0-.861,3.284,52.3,52.3,0,0,0,20.148,23.318c8.962,5.585,19.163,7.732,29.528,8.88,19.89,2.2,42.247-.516,57.029-15.317,8.374-8.385,13.3-19.74,14.753-31.418.594-4.786.945-9.787-1.991-13.908-2.773-3.894-7.048-6.4-11.363-8.261a88.441,88.441,0,0,0-16.481-4.991,137.681,137.681,0,0,0-18.027-2.762c-6.118-.484-12.27-.467-18.4-.429a141.094,141.094,0,0,0-17.2.994,143.448,143.448,0,0,0-17.913,3.451,59.2,59.2,0,0,0-14.836,5.692c-3.934,2.289-7.442,5.447-9.1,9.774-1.946,5.068-.594,11.277.78,16.318a65.518,65.518,0,0,0,3.086,8.659,2.414,2.414,0,0,0,3.283.861A2.463,2.463,0,0,0,66.624,367.992Z"/><path class="d" d="M167.689,349.315c2.631-1.852,3.213-8.156-1.346-10.936,1.252-2.367.113-5.794-2.918-8.039-2.144-1.588-6.976-1.9-9.71.366-2.239-2.614-4.735-4.312-7.986-4.524-4.371-.284-8.635,1.422-10.056,5.117-4.264-.853-8.812,2.274-9.7,5.117,0,0-7.533,15.919,2.7,18.762s21.32,2.274,26.437.853C161.123,354.36,167.689,349.315,167.689,349.315Z"/><path class="e" d="M115.878,329.775c-1-.553-2.008-1.051-2.99-1.482-3.037-1.333-6.749-1.083-8.3-.074s-4.272,4.228-5.556,5.556a13.713,13.713,0,0,1-7.71,4.706c.046.36.081.627.081.627l.413,3.169c4.72-.978,8.423,6.008,9.423,9.263a142.81,142.81,0,0,0,24.4-3.655l.368-6.068C126.4,337.338,121.258,332.753,115.878,329.775Z"/><path class="d" d="M138.418,351.358a67.666,67.666,0,0,0,10.509-3.749c1.609-.791,4.029-1.232,5.33,0a2.868,2.868,0,0,1,.106,3.712,5.224,5.224,0,0,1-1.032,1.088l3.023-1.071c2.593-1.652,5.472-.782,6.111.924.178,1.333,1.045,2.4-1.99,4.548-5.827,4.122-10.156,5.919-17.127,8.315a85.809,85.809,0,0,1-23.1,4.975l-5.061,1.337q-5.568-.205-11.113-.807l-.1-1.525a77.168,77.168,0,0,0-2.732-17.567l.742-.058c10.944-.853,21.036-2.452,29.267-5.256a9.54,9.54,0,0,1,3.673-.607c1.166.109,3.7,2.132,1.99,4.406l-1.02,2.03Q137.192,351.709,138.418,351.358Z"/><path class="f" d="M72.774,334.734a11.7,11.7,0,0,1,6.152-3.5c4.172-.767,9.025.274,11.868,3.828,0,0,4.653,5.416,1.1,10.793-6.711,10.172-17.052,3.633-17.052,3.633C69.154,345.8,70.18,338.335,72,335.705A9.179,9.179,0,0,1,72.774,334.734Z"/><path class="g" d="M78.228,347.7c.078-.172.161-.344.247-.516.626-1.253,2.139-3.2,3.486-3.583a4.814,4.814,0,0,1,3.981.863,19,19,0,0,1,1.988,1.614c.022-.046.045-.092.068-.138.626-1.253,2.139-3.2,3.486-3.583,4.643-1.321,8.36,5.172,9.591,8.675a75.358,75.358,0,0,1,2.9,18.076l-.005,1.514q-3.634-.394-7.248-.957c-5.776-.9-11.575-2.142-16.8-4.755-.883-.441-1.793-.95-2.7-1.52-.278-3.826-.232-7.465-.232-7.465A15,15,0,0,1,78.228,347.7Z"/><path class="d" d="M73.134,360.828c-.033.088,4.476,2.714,4.483,2.808.777.471,1.55.9,2.3,1.273,5.229,2.613,11.028,3.856,16.8,4.755q3.612.563,7.248.958l.005-1.515c0-.941-.051-2.022-.148-3.183a4.222,4.222,0,0,1-3.614-.684,11.1,11.1,0,0,1-2.908-3.635,8.388,8.388,0,0,0-1.365-1.9,4.266,4.266,0,0,0-4.346-.842,10.757,10.757,0,0,1-.627,3.056c-.471.392-.858.912-1.362,1.272a3.9,3.9,0,0,1-4.387-.293,11.109,11.109,0,0,1-2.908-3.635,8.366,8.366,0,0,0-1.365-1.9,4.261,4.261,0,0,0-3.928-.974A8.316,8.316,0,0,0,73.134,360.828Z"/><path class="c" d="M76.051,347.42a6.13,6.13,0,0,1-1.15-.964,4.125,4.125,0,0,1-.883-1.159c-.141-.237-.263-.481-.39-.725-.031-.061-.177-.422-.035-.063-.042-.106-.084-.214-.119-.323a16.558,16.558,0,0,1-.427-1.638c-.019-.089-.061-.472-.009-.021-.013-.109-.026-.218-.033-.328-.015-.253-.035-.5-.04-.759a14.8,14.8,0,0,1,.07-1.576c.032-.37-.07.4,0,.037.018-.1.032-.2.05-.293q.061-.332.143-.658c.107-.436.255-.852.4-1.276-.148.429-.066.147.051-.084.076-.152.157-.3.247-.446a5.769,5.769,0,0,1,1.015-1.188,9.367,9.367,0,0,1,3.218-2.025,10.047,10.047,0,0,1,1.817-.447c-.485.078.143-.01.308-.024q.434-.034.867-.042a7.585,7.585,0,0,1,2.821.322c.3.08.594.171.885.274.146.052.293.106.436.166-.239-.1-.053-.022.071.045a11.2,11.2,0,0,1,1.64,1c-.256-.2.062.066.091.091.156.141.311.283.461.431a8.891,8.891,0,0,1,.7.768c.072.09.242.34.416.618a12.915,12.915,0,0,1,.625,1.136,2.4,2.4,0,1,0,4.145-2.423c-2.863-5.776-9.57-8.35-15.709-6.8-3.213.813-6.671,3.1-8.2,6.121a13.363,13.363,0,0,0-1.292,7.359,12.125,12.125,0,0,0,5.39,9.038,2.4,2.4,0,0,0,2.423-4.145Z"/><path class="c" d="M75.119,328.423a10.128,10.128,0,0,0-.306,5.852l2.952-2.952L73.323,329.7a2.4,2.4,0,0,0-2.71,3.526,2.7,2.7,0,0,0,1.434,1.1l4.442,1.621a2.371,2.371,0,0,0,2.335-.617A2.45,2.45,0,0,0,79.442,333c-.058-.248-.1-.5-.141-.749l.086.638a8.057,8.057,0,0,1,0-2.11l-.086.638a8.012,8.012,0,0,1,.443-1.717,2.42,2.42,0,0,0-.242-1.85,2.4,2.4,0,0,0-3.284-.861l-.485.376a2.389,2.389,0,0,0-.618,1.059Z"/><path class="c" d="M64.792,351.387c1.307,7.168,7.9,12.635,14.118,15.693C86.873,371,95.964,372.189,104.7,373.1a159.855,159.855,0,0,0,27.973.452c8.81-.632,18.1-1.55,26.4-4.758,8.124-3.141,15.386-8.867,18.231-17.358.983-2.936-3.651-4.195-4.629-1.276-2.146,6.406-7.765,10.955-13.8,13.565-7.4,3.2-15.819,4.142-23.777,4.834a159.943,159.943,0,0,1-26.035.135c-8.081-.618-16.489-1.54-24.167-4.266-6.419-2.279-14.151-7.066-15.473-14.316a2.423,2.423,0,0,0-2.953-1.677,2.454,2.454,0,0,0-1.676,2.953Z"/><path class="c" d="M91.681,340.862a16.51,16.51,0,0,0,7.745-4.055c1.733-1.656,3.246-3.526,4.942-5.219a13.576,13.576,0,0,1,1.342-1.241c-.226.171.224-.141.3-.178a1.692,1.692,0,0,1,.594-.2,8.8,8.8,0,0,1,4.285.154,24.449,24.449,0,0,1,8.223,4.653c2.156,1.757,4.67,4.228,4.5,7.039-.189,3.085,4.611,3.074,4.8,0,.207-3.385-1.778-6.446-4.063-8.764a32.741,32.741,0,0,0-9.038-6.274c-3.344-1.62-7.378-2.563-10.964-1.094-2.7,1.107-4.657,3.882-6.594,5.959a22.032,22.032,0,0,1-2.688,2.621,13.312,13.312,0,0,1-4.656,1.969c-3,.717-1.732,5.347,1.276,4.628Z"/><path class="c" d="M164.279,340.01c.1.035.193.073.289.112q-.508-.218-.159-.059c.152.079.306.151.456.234s.287.165.426.255c.184.118.559.519.072.023.213.217.47.4.684.616.089.092.175.187.259.284.416.48-.212-.331.013.007.16.24.318.476.455.73.077.143.145.288.215.434.182.377-.2-.553-.059-.131.089.263.179.522.246.791.038.152.071.3.1.458.1.564-.02-.3-.008-.122a11.983,11.983,0,0,1,.016,1.641c-.021.307-.166.295.031-.2a2.87,2.87,0,0,0-.078.427,6.782,6.782,0,0,1-.194.714c-.037.114-.085.225-.122.339-.059.181.306-.626.062-.158-.105.2-.208.4-.331.593-.15.23-.417.372.1-.108-.065.06-.117.142-.177.207-.08.088-.167.167-.25.251-.372.375.444-.318.149-.1a2.458,2.458,0,0,0-.861,3.284,2.428,2.428,0,0,0,3.284.861,8.174,8.174,0,0,0,3.194-6.214,9.756,9.756,0,0,0-2.353-7.044,10,10,0,0,0-4.186-2.748,2.411,2.411,0,0,0-2.952,1.676,2.467,2.467,0,0,0,1.676,2.953Z"/><path class="c" d="M155.1,332.676c.081-.077.164-.152.249-.224q.3-.248-.089.066c.036-.095.345-.228.423-.275.145-.086.293-.166.445-.242.1-.05.2-.1.307-.143q-.429.178-.178.083c.355-.059.716-.237,1.072-.317.169-.038.34-.065.51-.1q.4-.062-.123.015c.114-.013.229-.024.345-.032a10.145,10.145,0,0,1,1.032-.026c.2,0,.4.016.592.033.084.006.168.014.251.023.269.032.221.026-.146-.02.059-.078.824.169.941.2.2.054.392.114.585.182l.139.051q.362.142-.171-.075a4.045,4.045,0,0,0,.772.426c.409.247-.244-.237.17.13.156.137.312.271.462.415s.288.285.425.434c.077.084.583.746.246.27a9.33,9.33,0,0,1,.6.947c.033.061.329.7.188.361s.1.3.118.367c.05.161.093.325.129.489.136.614.024.011.02.011.128,0-.059,1.015,0,1.106q.078-.535.026-.257c-.014.075-.03.15-.05.224a4.757,4.757,0,0,1-.189.578,2.409,2.409,0,0,0,1.676,2.952,2.467,2.467,0,0,0,2.952-1.676c1.575-4.056-1.381-9.185-5.122-10.922-3.814-1.771-8.857-1.376-12,1.551a2.42,2.42,0,0,0,0,3.394,2.45,2.45,0,0,0,3.394,0Z"/><path class="c" d="M137.987,331.937c-.115.286.259-.458.341-.6.066-.11.294-.445.1-.181.092-.123.2-.239.3-.353a6.659,6.659,0,0,1,.85-.8c-.259.2.483-.294.59-.356.175-.1.354-.189.531-.283.1-.052.33-.158.095-.057a8.918,8.918,0,0,1,1.058-.363,9.316,9.316,0,0,1,2.02-.372,11.122,11.122,0,0,1,2.406.051c-.246-.038.1.028.157.042.214.052.427.1.639.155s.414.128.62.194c.065.021.373.141.146.046a10.277,10.277,0,0,1,3.763,2.86A2.4,2.4,0,0,0,155,328.536a13.666,13.666,0,0,0-11.647-4.709c-4.406.451-8.28,2.61-9.989,6.834a2.415,2.415,0,0,0,1.676,2.952,2.458,2.458,0,0,0,2.952-1.676Z"/><path class="c" d="M128.287,337.054c.026-.082.063-.165.087-.248.076-.266-.27.56-.091.224.089-.168.174-.336.274-.5s.236-.324.338-.493c-.076.126-.362.435-.1.146.071-.079.14-.16.212-.238.3-.328.665-.589.974-.906-.127.131-.409.306-.1.082q.142-.1.288-.2c.2-.133.4-.259.6-.378s.421-.234.638-.34l.263-.124c.473-.225-.526.194-.033.015a11.211,11.211,0,0,1,1.341-.41c.12-.027.241-.052.363-.074.054-.01.551-.088.121-.026s.03,0,.124,0c.124-.01.248-.016.372-.02q.372-.012.746.012a1.323,1.323,0,0,0,.374.033l-.34-.046c.1.016.2.034.3.053a2.4,2.4,0,1,0,1.276-4.628,11.549,11.549,0,0,0-7.966,1.414,10.1,10.1,0,0,0-4.687,5.379,2.419,2.419,0,0,0,1.676,2.952,2.455,2.455,0,0,0,2.953-1.676Z"/><path class="c" d="M106.377,369.107a61.666,61.666,0,0,0-.935-9.449,62.76,62.76,0,0,0-1.83-8.583c-1.535-5-5.723-12.075-11.872-11.2-4.372.621-6.749,5.795-7.458,9.647a2.467,2.467,0,0,0,1.677,2.952,2.421,2.421,0,0,0,2.952-1.676,10.965,10.965,0,0,1,2.133-5.139,3.645,3.645,0,0,1,1.3-1.061,2.284,2.284,0,0,1,1.214.137c2.368.962,4.131,4.252,4.944,6.246a40.794,40.794,0,0,1,2.045,8.35,57.667,57.667,0,0,1,1.031,9.777c.007,3.088,4.807,3.094,4.8,0Z"/><path class="c" d="M95.159,367.828a35.371,35.371,0,0,0-.248-8.049,54.476,54.476,0,0,0-1.77-9.211,18.105,18.105,0,0,0-1.467-3.757,13.322,13.322,0,0,0-3.561-3.7c-3.192-2.474-7.155-2.841-9.977.391a15.259,15.259,0,0,0-3.511,11.625,2.467,2.467,0,0,0,2.4,2.4,2.417,2.417,0,0,0,2.4-2.4c-.3-3.073.224-7.129,2.979-9.087.95-.675,2.507.574,3.359,1.309a7.787,7.787,0,0,1,2.218,2.9,44.31,44.31,0,0,1,2.047,8.861,36.036,36.036,0,0,1,.331,8.722,2.415,2.415,0,0,0,2.4,2.4,2.455,2.455,0,0,0,2.4-2.4Z"/><path class="c" d="M142.668,339.471a1.168,1.168,0,0,1,.237-.132l-.574.242a2.431,2.431,0,0,1,.557-.139l-.638.086a3.967,3.967,0,0,1,1.027,0l-.638-.086a2.614,2.614,0,0,1,.652.166l-.573-.242c.032.015.063.029.094.045a1.777,1.777,0,0,0,.892.285,2.463,2.463,0,0,0,2.392-1.146,2.4,2.4,0,0,0-.861-3.283,5.374,5.374,0,0,0-.84-.35,2.525,2.525,0,0,0-.333-.081,7.405,7.405,0,0,0-1.37-.142,6.549,6.549,0,0,0-1.332.163,2.2,2.2,0,0,0-.305.095,3.69,3.69,0,0,0-.81.374,2.69,2.69,0,0,0-1.1,1.434,1.823,1.823,0,0,0-.043.957,1.794,1.794,0,0,0,.285.892,2.423,2.423,0,0,0,1.434,1.1l.638.086a2.389,2.389,0,0,0,1.212-.328Z"/><path class="c" d="M153.91,342.889a2.056,2.056,0,0,1,.354-.193l-.573.242a3.108,3.108,0,0,1,.758-.2l-.638.086a3.584,3.584,0,0,1,.937,0l-.638-.085c.086.012.171.028.255.047a1.823,1.823,0,0,0,.957.043,1.778,1.778,0,0,0,.893-.285,2.69,2.69,0,0,0,1.1-1.434l.085-.638a2.384,2.384,0,0,0-.327-1.211l-.376-.486a2.387,2.387,0,0,0-1.059-.617,8.987,8.987,0,0,0-.893-.134c-.107-.014-.214-.023-.322-.027a6.938,6.938,0,0,0-1.253.116,3.323,3.323,0,0,0-.6.142,7.605,7.605,0,0,0-.829.348,1.763,1.763,0,0,0-.252.147,2.312,2.312,0,0,0-1.146,2.391,1.794,1.794,0,0,0,.285.892l.376.486a2.387,2.387,0,0,0,1.059.617l.638.086a2.375,2.375,0,0,0,1.211-.328Z"/><path class="c" d="M104.688,365.36a84.671,84.671,0,0,0,19.851-1.306,118.083,118.083,0,0,0,19.871-4.94,62.625,62.625,0,0,0,8.15-3.407,8.723,8.723,0,0,0,4.4-4.2,5.123,5.123,0,0,0-1.121-5.691c-2.8-2.6-6.509-.927-9.447.335-.794.341-2.427.941-3.546,1.323-1.561.532-3.138,1.018-4.722,1.476a213.037,213.037,0,0,1-26.963,5.764,2.417,2.417,0,0,0-1.676,2.953,2.46,2.46,0,0,0,2.952,1.676c7.454-1.142,14.869-2.6,22.177-4.466,3.093-.79,6.171-1.651,9.2-2.669,1.2-.4,2.394-.833,3.568-1.309,1.088-.442,2.156-1.05,3.273-1.4.382-.121,1.793-.573,1.939-.036.27.992-2.4,2.089-2.988,2.379a56.869,56.869,0,0,1-6.939,2.815,118.612,118.612,0,0,1-18.075,4.553,81.281,81.281,0,0,1-19.895,1.357,2.42,2.42,0,0,0-2.4,2.4,2.447,2.447,0,0,0,2.4,2.4Z"/><path class="c" d="M157.565,353.413a3.071,3.071,0,0,1,1.909-.548,2.317,2.317,0,0,1,.492.11c.289.1.172.049.253.15.116.143-.054-.179.009.2.032.2.09.389.121.586-.067-.427-.1-.2-.038.048-.033-.127.14-.346,0-.182-.21.248.213-.3-.029.018a15.888,15.888,0,0,1-3.771,2.787,50.236,50.236,0,0,1-4.4,2.484,76.925,76.925,0,0,1-9.4,3.743,107.77,107.77,0,0,1-11.416,3.285,71.78,71.78,0,0,1-11.043,1.6,2.457,2.457,0,0,0-2.4,2.4,2.421,2.421,0,0,0,2.4,2.4,95.636,95.636,0,0,0,25.988-5.849,65.875,65.875,0,0,0,11.212-5.02,37.167,37.167,0,0,0,5.574-3.786,5.381,5.381,0,0,0,2.074-4.317c-.288-5.2-5.9-6.648-9.957-4.262-2.66,1.566-.248,5.716,2.423,4.145Z"/><path class="c" d="M101.987,353.882a157.98,157.98,0,0,0,20.539-2.8,83.543,83.543,0,0,0,8.635-2.294,18.652,18.652,0,0,1,2.335-.689,3.264,3.264,0,0,1,1.158-.081c-.431-.116.161.113.264.2-.226-.192.22.314.086.123.184.263.15.012-.16.476-1.719,2.577,2.437,4.983,4.145,2.423a5.269,5.269,0,0,0-3.249-7.9c-1.8-.444-3.786.14-5.489.7q-2.45.807-4.947,1.46a134.788,134.788,0,0,1-23.317,3.587,2.461,2.461,0,0,0-2.4,2.4,2.419,2.419,0,0,0,2.4,2.4Z"/></svg>