<?xml version="1.0" encoding="utf-8"?>
<!-- Uploaded to: SVG Repo, www.svgrepo.com, Generator: SVG Repo Mixer Tools -->
<svg width="800px" height="800px" viewBox="0 0 1024 1024" class="icon"  version="1.1" xmlns="http://www.w3.org/2000/svg"><path d="M806.677333 337.322667c-60.010667 60.010667-165.034667 45.013333-165.034666 45.013333s-14.954667-105.045333 45.013333-165.013333C746.666667 157.333333 851.669333 172.330667 851.669333 172.330667s15.018667 104.96-44.992 164.992z" fill="#689F38" /><path d="M651.285333 410.069333C787.072 425.152 937.92 576 937.92 576s15.082667-105.6-90.517333-181.013333c-105.6-75.434667-196.117333 15.082667-196.117334 15.082666zM616.234667 372.714667c-15.082667-135.765333-165.930667-286.634667-165.930667-286.634667s105.6-15.082667 181.013333 90.496c75.413333 105.621333-15.082667 196.138667-15.082666 196.138667z" fill="#8BC34A" /><path d="M750.997333 755.2c-114.517333 114.56-441.173333 234.837333-568.448 107.562667-127.296-127.274667-7.018667-453.909333 107.541334-568.448 114.56-114.56 256.832-50.453333 384.106666 76.842666 127.253333 127.232 191.36 269.482667 76.8 384.042667z" fill="#FF1744" /><path d="M346.282667 324.949333a53.312 53.312 0 1 1 75.413333 75.413334c-20.842667 20.821333-59.52 25.813333-80.362667 4.970666s-15.872-59.541333 4.949334-80.384zM521.856 448.96a53.312 53.312 0 1 1 75.413333 75.413333c-20.842667 20.821333-59.541333 25.792-80.384 4.949334s-15.872-59.541333 4.970667-80.362667zM244.181333 725.738667a53.312 53.312 0 1 1 75.413334 75.413333c-20.842667 20.821333-59.541333 25.792-80.384 4.949333s-15.850667-59.541333 4.970666-80.362666zM646.314667 622.272a53.312 53.312 0 1 1 75.413333 75.413333c-20.842667 20.821333-59.541333 25.792-80.384 4.949334s-15.872-59.52 4.970667-80.362667zM286.912 512.341333a53.312 53.312 0 1 1 75.413333 75.413334c-20.842667 20.821333-59.541333 25.792-80.384 4.949333s-15.850667-59.541333 4.970667-80.362667zM432.981333 686.272a53.312 53.312 0 1 1 75.413334 75.413333c-20.842667 20.821333-59.541333 25.792-80.384 4.949334s-15.872-59.52 4.970666-80.362667z" fill="#D50000" /><path d="M399.082667 377.749333c-8.341333 8.341333-49.408 35.925333-57.749334 27.584s19.242667-49.408 27.584-57.749333a21.312 21.312 0 1 1 30.165334 30.165333zM574.656 501.76c-8.341333 8.341333-49.408 35.925333-57.749333 27.584s19.242667-49.408 27.584-57.749333a21.312 21.312 0 1 1 30.165333 30.165333zM296.981333 778.517333c-8.341333 8.341333-49.408 35.925333-57.749333 27.584s19.242667-49.408 27.584-57.749333a21.312 21.312 0 1 1 30.165333 30.165333zM699.114667 675.072c-8.341333 8.341333-49.408 35.925333-57.749334 27.584s19.242667-49.408 27.584-57.749333a21.312 21.312 0 1 1 30.165334 30.165333zM339.712 565.12c-8.341333 8.341333-49.408 35.925333-57.749333 27.584s19.242667-49.408 27.584-57.749333a21.312 21.312 0 1 1 30.165333 30.165333zM485.781333 739.072c-8.341333 8.341333-49.408 35.925333-57.749333 27.584s19.242667-49.408 27.584-57.749333a21.312 21.312 0 1 1 30.165333 30.165333z" fill="#FFC107" /></svg>